<?xml version="1.0" standalone="no"?>
<!DOCTYPE svg PUBLIC "-//W3C//DTD SVG 20010904//EN"
 "http://www.w3.org/TR/2001/REC-SVG-20010904/DTD/svg10.dtd">
<svg version="1.0" xmlns="http://www.w3.org/2000/svg"
 width="1171.000000pt" height="420.000000pt" viewBox="0 0 1171.000000 420.000000"
 preserveAspectRatio="none">

<g transform="translate(0.000000,420.000000) scale(0.100000,-0.100000)"
fill="#000000" stroke="none">
<path d="M0 2100 c0 -2093 0 -2100 20 -2100 20 0 20 7 20 2100 0 2093 0 2100
-20 2100 -20 0 -20 -7 -20 -2100z"/>
<path d="M11640 2100 l0 -2100 35 0 35 0 0 2100 0 2100 -35 0 -35 0 0 -2100z"/>
<path d="M5820 2698 c-53 -87 -84 -216 -77 -321 3 -55 12 -85 43 -145 21 -41
44 -77 51 -80 15 -4 69 101 88 175 27 100 8 250 -45 353 -27 53 -37 56 -60 18z"/>
<path d="M5196 2445 c-64 -23 -89 -55 -94 -122 -4 -58 -4 -59 36 -95 40 -37
87 -53 133 -46 37 5 27 21 -27 41 -93 35 -121 91 -69 142 47 48 171 28 309
-49 105 -59 272 -199 259 -219 -3 -5 -865 -6 -2219 -2 l-2215 6 -41 45 c-23
25 -69 58 -107 77 -63 31 -71 32 -181 32 -104 0 -124 -4 -210 -34 -52 -18
-131 -51 -175 -74 -94 -48 -285 -171 -335 -216 l-35 -31 64 36 c162 93 387
186 529 220 100 23 246 22 302 -3 46 -21 108 -69 100 -77 -3 -2 -68 -7 -145
-10 -158 -7 -233 -15 -255 -27 -11 -6 -7 -9 15 -9 128 -2 380 -21 387 -28 6
-6 -5 -21 -28 -40 -27 -23 -55 -34 -107 -43 -106 -19 -225 4 -396 76 -73 31
-137 55 -143 53 -15 -5 109 -93 192 -137 167 -87 313 -103 434 -48 50 23 136
98 136 119 0 6 848 8 2215 7 1218 -1 2215 -5 2215 -9 0 -7 -140 -143 -175
-170 -86 -67 -231 -130 -298 -130 -77 0 -150 56 -128 98 17 32 69 71 109 82
77 21 82 50 9 50 -92 0 -157 -64 -157 -154 0 -61 17 -89 71 -116 82 -42 173
-34 292 27 126 63 280 194 328 277 31 55 38 120 17 159 -28 55 -109 144 -183
203 -159 127 -318 179 -429 139z"/>
<path d="M6310 2440 c-106 -25 -221 -99 -337 -215 -81 -82 -123 -145 -123
-186 0 -57 93 -171 227 -279 124 -100 270 -159 356 -146 51 8 112 40 131 68
21 29 21 120 0 159 -25 49 -131 86 -172 60 -18 -11 1 -26 53 -40 57 -16 85
-41 91 -82 5 -28 1 -41 -18 -64 -52 -60 -189 -39 -336 52 -79 49 -245 200
-236 214 3 5 908 7 2211 4 l2205 -4 54 -51 c69 -65 130 -92 219 -98 139 -8
303 57 493 198 l33 25 77 -39 c42 -22 88 -47 102 -56 14 -9 48 -29 75 -44 l50
-27 -45 42 c-51 47 -234 169 -325 216 -33 17 -109 48 -170 69 -102 35 -119 38
-225 38 -105 1 -120 -1 -173 -26 -32 -15 -84 -52 -116 -83 l-58 -55 -2214 0
-2214 1 75 72 c41 40 95 86 120 103 223 153 453 165 407 22 -10 -30 -45 -57
-98 -72 -46 -14 -53 -30 -15 -34 52 -6 92 8 130 45 32 33 36 42 36 90 0 98
-44 134 -162 132 -40 -1 -89 -5 -108 -9z m4609 -290 c98 -28 231 -79 231 -89
0 -9 -185 -87 -290 -122 -68 -23 -229 -37 -293 -25 -45 8 -117 56 -117 78 0
23 14 25 170 33 74 3 160 9 190 12 l55 7 -65 8 c-36 4 -126 7 -200 8 -145 1
-173 7 -151 34 21 25 79 57 129 72 68 20 247 11 341 -16z"/>
<path d="M5802 1873 c-62 -117 -77 -237 -43 -353 18 -66 63 -164 79 -174 11
-7 76 133 91 196 14 60 14 140 0 210 -11 57 -66 169 -85 175 -6 2 -25 -22 -42
-54z"/>
</g>
</svg>
