<svg xmlns="http://www.w3.org/2000/svg" viewBox="0 0 5046 519" width="100%" style="display:block">
<g transform="translate(0.000000,519.000000) scale(0.100000,-0.100000)"
fill="#000000" stroke="none">
<path d="M10232 4737 c-6 -7 -9 -23 -5 -35 3 -12 1 -28 -5 -35 -13 -16 -3 -77
14 -84 8 -3 14 -16 14 -29 0 -14 7 -27 15 -30 8 -4 15 -12 15 -19 0 -7 7 -15
15 -19 8 -3 15 -15 15 -26 0 -11 7 -20 15 -20 10 0 15 -10 15 -30 0 -24 4 -30
21 -30 15 0 20 -5 17 -23 -3 -26 19 -60 45 -70 10 -4 17 -15 16 -24 -4 -25 22
-63 43 -63 10 0 18 -5 18 -11 0 -6 11 -25 25 -43 14 -18 25 -37 25 -42 0 -14
264 -274 278 -274 19 0 62 -31 62 -44 0 -16 41 -41 62 -37 9 1 23 -7 30 -18 7
-12 23 -21 35 -21 15 0 23 -6 23 -16 0 -13 7 -15 29 -11 24 5 31 2 36 -13 4
-11 14 -20 24 -20 10 0 24 -7 31 -15 7 -8 27 -15 46 -15 18 0 39 -6 46 -13 7
-7 36 -14 63 -16 28 -1 55 -8 60 -15 6 -7 39 -15 74 -19 35 -3 67 -11 71 -17
5 -7 33 -11 80 -9 60 2 75 -1 86 -15 10 -15 25 -17 87 -15 50 2 80 -1 90 -9 9
-7 35 -14 59 -16 80 -5 86 -7 58 -15 -14 -4 -132 -6 -262 -3 -169 3 -242 1
-251 -7 -8 -6 -78 -13 -173 -17 -120 -5 -163 -10 -176 -22 -13 -11 -41 -14
-116 -13 -82 2 -100 -1 -105 -13 -5 -13 -23 -16 -84 -16 -65 0 -80 -3 -90 -18
-9 -16 -21 -18 -72 -14 -52 4 -64 2 -76 -14 -11 -16 -24 -18 -75 -16 -51 3
-64 1 -75 -15 -11 -15 -24 -17 -75 -15 -50 3 -64 1 -75 -14 -11 -16 -25 -18
-90 -15 -64 2 -79 0 -90 -15 -11 -16 -26 -18 -102 -15 -72 2 -92 -1 -102 -13
-12 -14 -46 -16 -247 -16 -185 0 -235 3 -241 14 -5 7 -34 16 -67 19 -32 3 -64
11 -69 16 -6 6 -26 11 -44 11 -22 0 -36 6 -40 16 -4 12 -14 14 -34 10 -16 -3
-29 -1 -29 4 0 13 -45 60 -59 60 -6 0 -16 10 -21 23 -15 33 -33 61 -47 70 -7
4 -13 21 -13 36 0 20 -6 30 -20 34 -17 4 -19 11 -13 58 3 30 11 60 17 68 5 7
10 23 11 35 0 14 6 21 20 21 11 0 26 6 33 13 16 14 41 15 62 2 12 -7 15 -32
16 -108 0 -54 4 -104 8 -110 4 -7 20 -12 36 -12 15 0 30 -7 34 -15 4 -11 20
-15 53 -15 42 1 54 6 92 40 41 37 43 43 38 80 -3 25 0 43 7 49 15 13 13 86 -3
105 -7 8 -9 25 -6 39 5 19 2 25 -14 30 -12 3 -21 12 -21 20 0 9 -14 21 -30 29
-17 7 -33 21 -36 30 -4 13 -16 18 -45 18 -26 0 -42 5 -45 15 -5 11 -22 15 -70
15 -50 0 -64 -3 -64 -15 0 -11 -11 -15 -43 -15 -32 0 -45 -5 -55 -21 -8 -12
-20 -18 -30 -15 -16 5 -62 -24 -62 -39 0 -12 -44 -55 -57 -55 -6 0 -15 -9 -18
-20 -3 -11 -11 -20 -16 -20 -5 0 -9 -18 -9 -40 0 -27 -5 -43 -15 -46 -11 -5
-15 -23 -15 -70 0 -48 4 -66 15 -70 10 -4 15 -20 15 -50 0 -32 4 -44 15 -44
10 0 15 -10 15 -30 0 -23 4 -30 20 -30 11 0 20 -6 20 -12 0 -18 55 -76 113
-120 33 -25 43 -37 32 -41 -8 -4 -17 -2 -19 2 -3 5 -45 9 -93 10 -48 1 -92 6
-97 11 -6 6 -24 10 -42 10 -17 0 -37 7 -44 15 -7 8 -23 15 -36 15 -13 0 -24 6
-24 13 0 17 -41 42 -63 38 -12 -1 -20 5 -24 18 -3 12 -14 21 -24 21 -11 0 -22
7 -25 15 -4 8 -12 15 -19 15 -7 0 -18 6 -24 14 -6 7 -22 11 -35 9 -18 -4 -26
0 -31 16 -4 14 -15 21 -31 21 -15 0 -24 6 -24 15 0 10 -10 15 -30 15 -20 0
-30 5 -30 15 0 10 -10 15 -30 15 -20 0 -30 5 -30 15 0 10 -10 15 -29 15 -17 0
-31 6 -35 16 -4 11 -13 14 -30 10 -19 -5 -26 -1 -31 14 -3 11 -15 20 -25 20
-10 0 -25 7 -34 15 -8 8 -30 15 -49 15 -22 0 -37 6 -41 15 -3 8 -14 15 -25 15
-11 0 -26 6 -33 14 -8 8 -30 13 -52 11 -31 -2 -40 2 -44 18 -4 16 -11 18 -45
14 -32 -4 -40 -2 -44 13 -3 13 -18 19 -56 24 -29 3 -53 10 -55 16 -2 5 -21 10
-42 10 -21 0 -45 6 -52 13 -7 8 -41 14 -78 16 -45 1 -69 7 -77 17 -9 12 -27
15 -78 12 -55 -2 -69 0 -80 15 -12 16 -27 18 -132 16 -66 -1 -125 1 -132 5
-16 10 -266 10 -282 0 -7 -4 -60 -6 -117 -5 -90 2 -105 0 -117 -15 -10 -14
-24 -17 -58 -15 -40 2 -46 0 -53 -21 -20 -64 6 -167 44 -168 11 0 13 -5 16
-37 2 -19 108 -123 126 -123 8 0 27 -11 42 -25 15 -14 32 -25 37 -25 5 0 13
-9 16 -20 3 -11 14 -20 23 -20 9 0 30 -14 46 -30 19 -20 36 -28 47 -25 12 4
22 -1 29 -15 6 -12 21 -20 35 -20 16 0 25 -6 25 -15 0 -10 10 -15 30 -15 20 0
30 -5 30 -15 0 -10 10 -15 30 -15 21 0 30 -5 30 -16 0 -13 7 -15 29 -11 24 5
31 2 36 -13 4 -11 15 -20 25 -20 10 0 25 -7 34 -15 8 -8 30 -15 49 -15 23 0
37 -6 41 -16 4 -12 13 -14 32 -10 20 5 27 3 31 -14 4 -16 13 -20 44 -20 26 0
42 -5 45 -15 4 -10 20 -15 45 -15 26 0 42 -5 45 -15 4 -11 21 -15 59 -15 39 0
54 -4 59 -16 5 -12 19 -15 62 -13 45 2 59 -1 69 -15 12 -15 28 -17 117 -15 57
1 110 -1 117 -6 16 -9 206 -9 222 1 6 3 61 6 122 5 78 -2 112 1 118 10 4 7 37
14 76 17 44 2 71 9 76 18 7 12 60 14 302 14 205 0 296 3 301 11 4 6 20 9 39 6
18 -3 37 -1 42 4 7 7 177 10 455 9 353 0 447 2 451 12 3 9 34 14 98 16 72 3
96 7 105 20 10 13 26 16 82 14 56 -3 70 -1 75 12 5 13 22 16 77 16 56 0 70 3
70 15 0 12 14 15 68 15 54 0 69 4 79 18 9 16 21 18 72 14 52 -4 64 -2 76 14
11 16 24 18 78 16 51 -3 65 -1 70 12 5 13 24 16 106 16 79 0 100 3 105 15 4
12 32 15 159 15 109 0 157 4 165 13 18 17 850 28 870 11 8 -7 32 -9 58 -6 24
2 50 0 56 -6 8 -6 75 -12 156 -13 94 -2 153 -7 169 -16 17 -8 65 -13 139 -13
95 0 116 -3 121 -16 5 -13 21 -15 97 -13 73 2 96 -1 118 -15 21 -13 45 -17
109 -15 68 2 84 -1 95 -15 10 -15 25 -17 89 -15 65 3 79 1 90 -14 11 -15 26
-18 91 -16 62 2 79 -1 89 -14 10 -13 29 -17 89 -17 59 0 78 -3 82 -15 5 -11
24 -15 80 -15 61 0 74 -3 74 -16 0 -13 11 -15 72 -12 63 2 73 1 76 -15 3 -14
15 -17 73 -17 53 0 71 -4 75 -15 5 -11 23 -15 73 -15 37 0 72 -5 78 -11 6 -6
31 -11 57 -11 34 0 46 -4 46 -14 0 -12 -19 -14 -122 -9 -72 4 -130 2 -142 -3
-44 -21 -65 -24 -200 -22 -114 1 -142 -2 -164 -16 -20 -13 -45 -16 -115 -15
-74 2 -91 -1 -101 -15 -11 -14 -28 -16 -105 -15 -78 2 -95 -1 -106 -15 -10
-14 -25 -17 -79 -15 -41 1 -73 -2 -82 -10 -8 -6 -47 -14 -87 -17 -52 -4 -75
-10 -84 -22 -9 -13 -23 -16 -69 -12 -38 3 -59 1 -64 -7 -4 -7 -36 -15 -71 -18
-38 -4 -67 -11 -72 -19 -5 -9 -27 -14 -61 -14 -39 0 -55 -4 -60 -15 -4 -11
-21 -15 -60 -15 -44 0 -55 -3 -58 -18 -5 -16 -13 -18 -61 -14 -45 3 -56 1 -59
-12 -3 -15 -220 -16 -2783 -16 -2460 0 -2781 2 -2791 15 -6 8 -16 15 -21 15
-6 0 -16 7 -23 15 -7 8 -21 15 -31 15 -11 0 -36 9 -56 20 -21 11 -43 20 -50
20 -7 0 -13 5 -13 10 0 6 -13 10 -30 10 -21 0 -30 5 -30 16 0 13 -7 15 -29 11
-24 -5 -31 -2 -36 13 -4 11 -15 20 -25 20 -10 0 -25 6 -32 14 -8 8 -30 13 -52
11 -30 -2 -40 2 -43 16 -4 15 -15 19 -44 19 -26 0 -42 5 -45 15 -4 10 -20 15
-45 15 -25 0 -41 6 -47 17 -7 12 -18 15 -45 10 -30 -5 -37 -2 -42 14 -5 16
-16 19 -60 19 -38 0 -54 4 -59 15 -4 11 -21 15 -60 15 -39 0 -55 4 -60 15 -4
11 -21 15 -66 15 -48 0 -60 3 -60 16 0 13 -12 15 -71 13 -59 -2 -74 1 -85 15
-10 15 -25 17 -89 15 -65 -3 -79 -1 -90 14 -11 16 -28 18 -135 16 -75 -1 -126
3 -132 9 -6 6 -24 8 -39 5 -18 -3 -29 -1 -29 6 0 8 -95 11 -340 11 -245 0
-340 -3 -340 -11 0 -7 -11 -9 -29 -6 -15 3 -33 1 -39 -5 -8 -8 -50 -11 -120
-9 -92 2 -110 0 -115 -13 -5 -13 -24 -16 -96 -16 -70 0 -90 -3 -95 -15 -4 -11
-22 -15 -75 -15 -52 0 -70 -4 -75 -15 -4 -11 -21 -15 -60 -15 -39 0 -55 -4
-60 -15 -4 -11 -21 -15 -60 -15 -45 0 -55 -3 -59 -20 -4 -16 -11 -18 -42 -13
-29 5 -40 2 -47 -10 -6 -11 -22 -17 -47 -17 -25 0 -41 -5 -45 -15 -3 -10 -19
-15 -45 -15 -30 0 -40 -4 -44 -20 -4 -16 -11 -18 -40 -13 -26 4 -41 1 -52 -11
-9 -9 -27 -16 -41 -16 -15 0 -24 -6 -24 -15 0 -11 -11 -15 -39 -15 -25 0 -41
-5 -45 -15 -3 -10 -19 -15 -44 -15 -23 0 -45 -6 -52 -15 -7 -8 -21 -15 -32
-15 -10 0 -21 -7 -24 -15 -4 -10 -20 -15 -44 -15 -21 0 -43 -7 -50 -15 -7 -8
-21 -15 -32 -15 -10 0 -21 -7 -24 -15 -4 -10 -20 -15 -44 -15 -22 0 -43 -7
-50 -16 -12 -13 -47 -15 -272 -12 -208 2 -260 6 -267 17 -7 10 -21 12 -51 8
-37 -5 -43 -3 -48 15 -4 17 -11 19 -43 15 -31 -4 -39 -2 -44 14 -4 11 -16 19
-29 19 -13 0 -42 13 -64 30 -23 16 -51 30 -62 30 -11 0 -20 4 -20 8 0 11 -151
162 -162 162 -4 0 -8 14 -8 30 0 20 -5 30 -15 30 -12 0 -15 13 -15 59 0 33 -4
63 -10 66 -13 8 -13 135 0 135 6 0 10 20 10 44 0 26 6 48 15 56 9 7 15 29 15
51 0 25 5 39 13 39 14 0 40 38 42 62 2 23 74 90 91 84 7 -3 14 -2 16 2 8 19
79 52 111 52 22 0 37 6 41 16 4 12 17 14 53 11 26 -2 49 -9 51 -15 2 -7 25
-12 57 -12 38 0 54 -4 59 -15 3 -8 17 -15 31 -15 14 0 25 -4 25 -9 0 -11 87
-98 105 -105 10 -4 13 -14 9 -36 -4 -18 -1 -36 6 -45 11 -13 11 -20 0 -40 -7
-13 -10 -35 -6 -50 6 -22 3 -28 -14 -32 -11 -3 -20 -9 -20 -14 0 -5 -9 -9 -20
-9 -11 0 -20 -6 -20 -14 0 -8 -3 -17 -8 -19 -10 -7 -115 13 -126 24 -6 5 -47
9 -92 9 -79 0 -82 -1 -118 -34 -34 -33 -36 -38 -36 -96 0 -55 2 -61 25 -72 14
-6 25 -15 25 -20 0 -4 3 -7 8 -7 24 4 42 -3 42 -16 0 -9 9 -15 25 -15 14 0 28
-7 32 -16 4 -11 17 -15 47 -13 22 1 48 -1 56 -4 37 -13 60 -14 70 -2 7 9 23
12 46 8 29 -5 38 -2 50 16 9 12 23 21 32 19 24 -3 62 24 62 44 0 10 7 18 16
18 20 0 53 39 54 63 0 9 7 17 15 17 10 0 15 10 15 34 0 21 6 36 15 40 12 4 15
30 15 145 0 132 -1 139 -21 144 -18 5 -20 11 -14 36 6 27 4 31 -14 31 -12 0
-21 6 -21 15 0 8 -4 15 -9 15 -5 0 -12 8 -15 18 -3 9 -19 26 -36 37 -16 11
-30 24 -30 28 0 14 -43 46 -61 47 -9 0 -22 7 -29 15 -7 9 -29 15 -52 15 -25 0
-41 5 -44 15 -9 22 -369 22 -378 0 -3 -9 -19 -15 -40 -15 -22 0 -52 -12 -87
-36 -61 -40 -190 -164 -183 -175 7 -11 -7 -39 -20 -39 -17 0 -40 -42 -37 -68
2 -17 -3 -25 -18 -29 -12 -3 -21 -12 -21 -20 0 -8 -7 -21 -15 -29 -10 -10 -15
-35 -15 -75 0 -46 -3 -59 -15 -59 -13 0 -15 -21 -15 -125 0 -104 2 -125 15
-125 11 0 15 -12 15 -50 0 -38 4 -50 15 -50 10 0 15 -10 15 -30 0 -20 5 -30
15 -30 10 0 15 -10 15 -30 0 -23 4 -30 20 -30 11 0 20 -6 20 -12 0 -17 87
-111 123 -133 15 -10 27 -22 27 -29 0 -16 41 -41 62 -37 9 1 23 -7 30 -18 7
-12 22 -21 34 -21 12 0 24 -7 28 -15 3 -8 14 -15 25 -15 11 0 27 -7 36 -16 11
-12 26 -15 52 -11 30 5 36 3 41 -15 4 -18 11 -20 59 -16 44 4 56 1 67 -14 11
-15 22 -17 74 -13 39 4 62 2 62 -5 0 -5 -8 -10 -17 -11 -32 -1 -127 -36 -131
-47 -2 -7 -19 -12 -39 -12 -19 0 -41 -7 -49 -15 -9 -8 -24 -15 -35 -15 -11 0
-22 -7 -25 -15 -4 -9 -19 -15 -41 -15 -19 0 -41 -7 -49 -15 -9 -8 -26 -15 -40
-15 -15 0 -24 -6 -24 -15 0 -11 -11 -15 -39 -15 -30 0 -41 -5 -46 -19 -5 -16
-13 -18 -44 -14 -32 4 -39 2 -43 -15 -5 -18 -11 -20 -43 -15 -29 5 -40 2 -47
-10 -7 -13 -23 -17 -62 -17 -44 0 -55 -3 -59 -19 -4 -16 -12 -18 -56 -13 -35
3 -56 0 -67 -9 -13 -11 -75 -15 -263 -19 -225 -5 -247 -4 -263 12 -10 11 -31
18 -55 18 -24 0 -45 7 -55 17 -24 26 -48 45 -48 38 0 -3 -9 -1 -21 5 -12 7
-18 18 -15 26 3 8 1 14 -4 14 -5 0 -13 12 -16 28 -4 15 -13 32 -21 37 -8 6
-15 34 -16 69 -2 51 0 60 16 64 16 4 18 11 14 40 -5 28 -3 35 13 39 11 3 20
11 20 18 0 39 77 125 111 125 10 0 20 9 24 20 5 15 12 18 35 13 20 -3 34 0 45
11 17 16 59 13 79 -5 6 -5 27 -9 48 -9 24 0 38 -5 38 -13 0 -7 14 -21 30 -31
24 -13 29 -22 24 -38 -6 -20 -62 -77 -76 -78 -5 0 -8 -7 -8 -15 0 -8 -9 -15
-19 -15 -10 0 -33 -13 -51 -30 -18 -16 -38 -30 -45 -30 -15 0 -23 -58 -17
-120 3 -31 8 -40 23 -40 12 0 19 -7 19 -20 0 -18 7 -20 75 -20 60 0 75 3 75
15 0 11 11 15 38 15 30 0 46 7 68 30 16 16 36 30 45 30 20 0 39 20 39 41 0 10
13 31 30 47 22 23 30 40 30 67 0 22 6 38 15 41 21 8 21 100 0 108 -10 4 -15
20 -15 51 0 33 -4 45 -15 45 -9 0 -15 9 -15 23 -1 27 -33 67 -54 67 -9 0 -16
7 -16 16 0 21 -40 53 -67 54 -14 0 -23 6 -23 15 0 11 -12 15 -44 15 -30 0 -46
5 -50 15 -8 23 -115 21 -131 -2 -9 -13 -24 -17 -54 -14 -30 2 -43 -2 -47 -13
-4 -10 -18 -16 -35 -16 -19 0 -29 -5 -29 -15 0 -9 -9 -15 -25 -15 -13 0 -29
-8 -34 -19 -6 -10 -25 -24 -43 -31 -42 -16 -148 -119 -148 -142 0 -10 -7 -18
-15 -18 -8 0 -15 -6 -15 -14 0 -8 -7 -16 -15 -20 -8 -3 -15 -15 -15 -26 0 -12
-7 -28 -15 -36 -22 -22 -22 -256 0 -274 8 -7 15 -21 15 -31 0 -10 9 -23 21
-29 11 -6 19 -19 17 -29 -4 -21 55 -91 77 -91 8 0 15 -7 15 -16 0 -19 39 -53
62 -54 9 0 21 -6 25 -13 12 -18 71 -47 98 -47 13 0 28 -7 33 -17 7 -12 18 -15
47 -10 32 5 38 3 42 -14 5 -19 12 -20 74 -18 43 2 73 -1 80 -8 7 -7 24 -9 40
-6 18 3 29 1 29 -6 0 -14 112 -15 138 -2 37 20 60 24 138 22 66 -2 82 0 87 13
5 12 20 16 61 16 37 0 58 5 63 14 5 9 28 15 58 17 28 2 56 9 63 16 11 11 33
15 67 13 3 -1 13 6 21 15 9 8 26 15 40 15 15 0 24 6 24 15 0 11 11 15 39 15
31 0 41 5 46 20 5 15 12 18 36 13 18 -3 29 -1 29 6 0 6 18 14 39 17 27 4 41
12 44 25 4 15 11 18 36 13 24 -5 31 -3 31 10 0 12 10 16 39 16 22 0 44 6 51
15 7 8 21 15 32 15 10 0 21 7 24 15 4 9 19 15 35 15 16 0 29 4 29 10 0 5 18
13 40 16 26 4 41 13 45 25 5 14 13 17 36 12 18 -3 29 -1 29 6 0 6 18 14 39 17
27 4 41 12 44 25 4 15 11 18 35 13 21 -4 31 -2 35 10 4 10 18 16 40 16 19 0
40 7 47 15 7 8 21 15 32 15 10 0 21 7 24 15 4 10 20 15 44 15 22 0 40 5 42 13
5 14 363 28 377 14 5 -5 117 -8 249 -7 155 0 243 -3 247 -10 8 -12 2221 -14
2229 -2 11 19 6058 33 6055 15 -2 -9 -98 -31 -137 -32 -13 -1 -30 -8 -38 -16
-13 -13 -57 -21 -67 -12 -2 1 -11 -6 -21 -15 -15 -15 -58 -24 -69 -15 -2 1
-11 -6 -21 -15 -10 -10 -28 -18 -41 -18 -12 0 -25 -7 -29 -15 -3 -9 -19 -15
-41 -15 -22 0 -38 -6 -41 -15 -4 -10 -20 -15 -44 -15 -29 0 -39 -5 -43 -20 -4
-16 -11 -18 -40 -13 -26 4 -41 1 -52 -11 -9 -9 -27 -16 -41 -16 -15 0 -24 -6
-24 -15 0 -11 -11 -15 -39 -15 -30 0 -41 -5 -46 -18 -4 -15 -14 -18 -42 -17
-21 2 -43 -3 -51 -11 -7 -8 -22 -14 -33 -14 -11 0 -22 -7 -25 -15 -4 -9 -19
-15 -41 -15 -19 0 -41 -7 -49 -15 -9 -8 -24 -15 -34 -15 -10 0 -21 -9 -25 -20
-5 -15 -12 -18 -36 -13 -18 3 -29 1 -29 -6 0 -6 -18 -14 -39 -17 -27 -4 -41
-12 -44 -25 -4 -15 -11 -18 -35 -13 -21 4 -31 2 -35 -10 -4 -10 -18 -16 -41
-16 -25 0 -35 -5 -39 -20 -4 -16 -11 -19 -35 -14 -21 4 -31 2 -35 -10 -5 -13
-24 -16 -109 -16 -72 0 -110 4 -123 14 -14 10 -61 15 -152 17 -88 3 -136 8
-145 16 -16 17 -274 18 -283 2 -4 -6 -13 -8 -20 -5 -7 2 -18 -1 -24 -7 -7 -7
-45 -10 -105 -8 -77 2 -94 0 -99 -13 -5 -13 -23 -16 -88 -16 -66 0 -84 -3 -95
-17 -10 -15 -25 -17 -83 -14 -60 2 -71 0 -71 -13 0 -13 -12 -16 -65 -16 -36 0
-65 -4 -65 -9 0 -8 -44 -18 -115 -24 -11 -1 -26 -8 -33 -14 -7 -7 -28 -13 -47
-13 -24 0 -34 -5 -38 -20 -4 -16 -11 -19 -36 -14 -20 4 -31 2 -31 -5 0 -6 -18
-14 -40 -17 -22 -4 -45 -13 -51 -20 -6 -8 -19 -14 -29 -14 -10 0 -23 -7 -30
-15 -7 -8 -19 -15 -26 -15 -8 0 -14 -5 -14 -10 0 -6 -7 -13 -15 -16 -8 -4 -29
-19 -46 -35 -17 -16 -39 -29 -48 -29 -9 0 -36 -19 -58 -42 -41 -42 -42 -45
-40 -103 3 -73 11 -89 43 -81 17 5 27 1 36 -14 11 -17 23 -20 95 -20 67 0 83
-3 83 -15 0 -12 14 -15 70 -15 54 0 72 -4 76 -15 5 -11 23 -15 75 -15 53 0 71
-4 75 -15 5 -12 25 -15 90 -15 66 0 86 -3 90 -15 5 -13 37 -15 203 -15 121 0
201 4 207 10 6 6 35 13 65 17 30 3 56 10 60 14 3 5 27 12 54 16 28 3 56 12 63
20 7 7 24 13 38 13 13 0 24 4 24 10 0 5 18 13 40 16 22 4 45 13 51 20 6 8 20
14 30 14 10 0 21 9 24 21 5 14 14 19 29 17 13 -1 38 9 59 25 20 15 43 27 51
27 9 0 16 7 16 15 0 9 9 15 23 15 24 1 67 32 67 49 0 6 7 12 15 12 8 1 19 2
25 3 5 0 27 20 50 44 22 23 48 42 58 42 19 1 85 59 95 83 4 10 13 13 26 10 14
-3 23 0 27 11 4 11 18 16 44 16 29 0 39 5 43 20 4 16 11 18 40 13 26 -4 41 -1
52 11 9 9 25 16 36 16 11 0 22 7 25 15 4 10 20 15 44 15 21 0 43 7 50 15 7 8
21 15 32 15 10 0 21 7 24 15 4 9 19 15 41 15 19 0 41 7 49 15 9 8 24 15 35 15
11 0 22 7 25 15 4 8 18 15 33 15 14 0 35 7 45 15 11 8 30 15 42 15 14 0 25 8
29 19 5 16 12 19 40 14 24 -4 39 -1 50 11 9 9 25 16 36 16 11 0 22 7 25 15 4
10 20 15 44 15 21 0 43 7 50 15 7 8 23 15 36 15 15 0 24 6 24 15 0 11 11 15
39 15 25 0 41 5 45 15 3 10 19 15 45 15 30 0 40 4 44 20 4 16 11 19 36 14 24
-5 31 -3 31 10 0 12 10 16 45 16 33 0 45 4 45 15 0 11 11 15 39 15 25 0 41 5
45 15 3 10 19 15 45 15 25 0 41 5 45 15 3 10 19 15 45 15 25 0 41 5 45 15 3
10 19 15 45 15 25 0 41 5 45 15 3 10 19 15 45 15 25 0 41 5 45 15 3 10 19 15
45 15 25 0 41 5 45 15 4 10 20 15 51 15 33 0 45 4 45 15 0 11 13 15 54 15 44
0 56 4 60 18 4 13 17 18 46 19 49 2 52 -13 9 -47 -46 -37 -148 -140 -166 -167
-8 -12 -20 -23 -25 -23 -13 0 -47 -42 -48 -58 0 -7 -7 -15 -15 -18 -8 -4 -15
-12 -15 -19 0 -7 -7 -18 -15 -25 -9 -8 -13 -21 -9 -35 4 -18 1 -25 -15 -30
-12 -3 -21 -15 -21 -25 0 -10 -7 -26 -16 -35 -11 -11 -14 -25 -10 -46 4 -22 1
-31 -11 -36 -20 -8 -77 -71 -79 -87 -3 -32 -5 -36 -15 -36 -20 0 -48 -44 -43
-67 4 -15 0 -23 -15 -28 -17 -5 -21 -15 -21 -46 0 -29 -4 -39 -16 -39 -13 0
-15 -11 -13 -61 2 -48 -1 -64 -14 -74 -15 -11 -17 -35 -17 -187 0 -168 1 -176
20 -181 18 -5 20 -11 14 -47 -6 -38 -4 -44 25 -70 17 -16 31 -38 31 -49 0 -14
6 -21 20 -21 11 0 20 -6 20 -13 0 -7 11 -24 25 -39 14 -15 25 -33 25 -41 0
-15 49 -60 71 -65 8 -2 19 -9 24 -16 6 -7 22 -21 38 -30 15 -10 27 -23 27 -29
0 -13 27 -33 78 -57 23 -11 42 -25 42 -31 0 -16 42 -48 62 -49 10 0 37 -20 60
-45 23 -25 50 -45 59 -45 10 0 31 -13 47 -30 39 -39 102 -41 146 -6 26 22 28
28 22 66 -6 37 -4 42 14 47 20 5 21 12 19 88 -1 45 1 87 5 94 12 19 -5 312
-20 340 -8 14 -14 41 -14 59 0 20 -6 35 -15 38 -10 4 -15 20 -15 45 0 21 -4
39 -10 39 -5 0 -12 11 -16 25 -3 14 -10 25 -14 25 -4 0 -13 14 -19 30 -5 17
-15 30 -20 30 -6 0 -11 8 -11 18 0 10 -13 32 -30 50 -16 18 -30 39 -30 45 -1
16 -36 57 -49 57 -6 0 -12 6 -12 13 -3 27 -5 33 -19 54 -8 13 -20 23 -27 23
-8 0 -13 13 -13 30 0 24 -4 30 -21 30 -17 0 -20 5 -17 25 3 14 -1 30 -8 36 -8
6 -14 22 -14 35 0 15 -6 24 -15 24 -11 0 -15 11 -15 40 0 22 -9 55 -20 75 -15
27 -17 41 -10 60 5 14 14 25 20 25 5 0 10 6 10 14 0 7 6 19 14 25 7 6 11 22 8
36 -3 20 0 25 17 25 11 0 21 6 21 13 0 21 30 77 42 77 13 0 47 42 48 59 0 16
127 141 144 141 15 1 56 36 56 49 0 5 15 17 33 25 28 14 137 16 835 18 636 2
802 0 802 -9 0 -7 -4 -13 -9 -13 -16 0 -133 -128 -154 -169 -11 -23 -25 -41
-30 -41 -12 0 -46 -42 -47 -57 0 -7 -8 -22 -17 -32 -35 -38 -43 -50 -43 -65 0
-7 -7 -16 -15 -20 -10 -4 -15 -20 -15 -51 0 -33 -4 -45 -15 -45 -10 0 -15 -11
-15 -35 0 -20 -8 -43 -17 -54 -83 -87 -137 -141 -145 -141 -4 0 -8 -7 -8 -15
0 -10 -10 -15 -29 -15 -16 0 -31 -5 -33 -12 -3 -7 -37 -13 -91 -16 -73 -4 -88
-2 -93 12 -3 9 -14 16 -24 16 -10 0 -23 7 -30 15 -6 8 -15 14 -18 13 -54 -7
-62 33 -16 78 19 19 34 39 34 43 0 5 19 11 43 14 33 3 46 0 59 -14 22 -25 52
-24 88 3 25 18 30 29 30 65 0 24 -5 43 -11 43 -5 0 -32 23 -59 51 -36 37 -54
49 -68 45 -12 -4 -25 1 -37 14 -22 24 -33 25 -57 3 -12 -11 -32 -16 -53 -14
-36 3 -84 -24 -85 -46 0 -6 -13 -20 -29 -29 -16 -10 -32 -26 -34 -36 -3 -10
-12 -18 -21 -18 -9 0 -16 -4 -16 -9 0 -5 -7 -16 -15 -25 -10 -9 -17 -41 -19
-91 -6 -93 2 -145 21 -145 7 0 17 -8 20 -17 9 -23 53 -63 81 -74 12 -5 22 -15
22 -24 0 -8 9 -15 20 -15 10 0 23 -7 28 -16 7 -13 19 -16 52 -11 36 5 43 3 47
-14 5 -17 15 -19 119 -19 64 0 114 4 114 9 0 6 20 13 45 17 28 4 45 11 45 20
0 8 10 14 23 14 25 1 60 27 70 53 13 33 24 8 19 -41 -3 -36 0 -53 12 -64 9 -9
16 -30 16 -46 0 -16 7 -35 15 -42 8 -7 15 -21 15 -31 0 -10 9 -21 21 -24 13
-5 19 -14 18 -28 -3 -24 20 -67 36 -67 5 -1 23 -22 40 -47 39 -63 84 -113 100
-113 8 0 20 -12 27 -27 8 -17 21 -28 34 -28 12 0 33 -15 48 -33 15 -17 35 -32
45 -32 9 0 24 -8 33 -17 33 -35 48 -43 82 -43 21 0 36 -6 40 -15 3 -8 14 -15
24 -15 11 0 25 -6 31 -14 6 -7 34 -16 63 -19 28 -4 55 -11 58 -18 4 -6 31 -9
65 -8 45 2 60 -1 70 -14 11 -15 35 -17 198 -17 155 0 186 2 191 15 4 11 22 15
71 15 36 0 65 4 65 9 0 6 20 13 44 16 25 4 47 13 50 21 3 8 20 14 39 14 19 0
40 7 47 15 7 8 18 15 25 15 7 0 15 7 19 15 3 8 14 15 25 15 10 0 21 7 25 15 3
8 13 15 23 15 20 1 86 58 96 84 4 9 11 16 16 16 19 0 111 105 111 128 0 13 6
22 15 22 10 0 15 10 15 30 0 20 5 30 15 30 11 0 15 12 15 45 0 31 5 47 15 51
21 9 21 190 0 218 -8 11 -15 37 -15 58 0 25 -5 41 -15 44 -9 4 -15 19 -15 40
0 19 -4 34 -9 34 -5 0 -14 14 -20 30 -5 17 -15 30 -20 30 -6 0 -11 11 -11 25
0 18 -5 25 -20 25 -11 0 -20 6 -20 13 0 46 -55 107 -112 128 -21 7 -40 21 -44
31 -3 11 -15 18 -30 18 -14 0 -27 7 -30 15 -4 10 -20 15 -44 15 -24 0 -40 5
-44 15 -8 22 -261 22 -270 0 -3 -9 -18 -15 -40 -15 -21 0 -36 -6 -40 -15 -3
-8 -16 -15 -28 -15 -22 -1 -68 -31 -68 -45 0 -12 -77 -85 -89 -85 -6 0 -11 -6
-11 -14 0 -8 -7 -22 -16 -30 -10 -11 -14 -25 -9 -44 4 -19 1 -33 -8 -41 -11
-9 -13 -21 -6 -49 5 -20 9 -54 9 -74 0 -23 6 -40 16 -46 8 -5 25 -28 37 -52
14 -28 30 -44 44 -47 25 -3 63 -32 63 -48 1 -14 78 -48 95 -41 9 3 19 -3 26
-16 9 -17 18 -19 50 -15 31 4 39 2 44 -14 4 -10 10 -19 15 -19 13 0 70 34 70
42 0 11 49 58 60 58 14 0 12 41 -2 72 -7 14 -38 42 -70 62 -32 20 -58 41 -58
46 0 6 -11 10 -25 10 -14 0 -25 4 -25 10 0 5 -18 26 -40 47 -34 33 -40 44 -42
86 -2 49 17 76 54 77 9 0 19 8 23 19 5 15 13 18 49 14 26 -3 46 -1 50 6 9 14
103 15 111 1 3 -5 26 -10 51 -10 32 0 44 -4 44 -15 0 -8 7 -15 16 -15 22 0
105 -68 102 -83 -3 -17 25 -57 39 -57 8 0 13 -14 13 -39 0 -31 4 -40 21 -44
17 -5 20 -11 15 -29 -3 -13 -6 -80 -6 -150 0 -102 -3 -130 -16 -142 -11 -11
-14 -25 -9 -46 6 -26 4 -30 -14 -30 -16 0 -21 -6 -21 -25 0 -41 -143 -175
-186 -175 -8 0 -14 -7 -14 -15 0 -9 -9 -15 -25 -15 -14 0 -29 -8 -35 -19 -7
-13 -16 -17 -31 -14 -14 4 -25 0 -31 -11 -6 -11 -23 -16 -58 -16 -38 0 -50 -4
-54 -17 -5 -17 -23 -18 -212 -16 -176 2 -210 5 -225 19 -13 11 -28 15 -48 11
-24 -5 -31 -2 -36 12 -4 13 -19 21 -48 25 -23 3 -48 7 -54 8 -7 1 -13 5 -13
10 0 5 -13 7 -29 3 -24 -5 -30 -2 -36 14 -3 12 -14 21 -24 21 -10 0 -24 7 -31
15 -7 8 -20 15 -30 15 -10 0 -23 6 -29 14 -6 7 -22 11 -36 8 -18 -3 -27 1 -32
14 -9 25 -33 43 -58 44 -11 0 -29 15 -40 33 -11 17 -29 33 -40 36 -26 5 -69
47 -60 61 3 5 2 10 -4 10 -5 0 -12 9 -16 19 -3 10 -15 21 -27 24 -15 4 -19 11
-15 26 3 11 -1 25 -9 32 -8 6 -14 19 -14 29 0 10 -7 31 -15 46 -21 42 -21 252
0 260 9 4 15 19 15 39 0 20 6 35 15 39 9 3 15 18 15 35 0 16 7 36 15 45 8 8
15 24 15 36 0 11 7 23 15 26 8 4 15 12 15 19 0 7 7 18 15 25 8 7 15 18 14 24
-3 23 1 36 11 36 16 0 74 69 75 90 1 16 65 90 78 90 7 0 67 60 67 67 0 13 71
74 109 94 23 12 44 25 47 30 3 5 1136 9 2735 9 l2731 0 19 -22 c10 -13 18 -31
19 -40 0 -10 6 -18 14 -18 7 0 24 -15 37 -34 13 -19 36 -42 51 -51 15 -9 28
-22 28 -28 0 -16 41 -42 62 -39 9 2 22 -6 28 -17 6 -12 21 -21 34 -21 13 0 26
-7 30 -15 3 -8 14 -15 25 -15 11 0 26 -6 34 -14 9 -9 32 -13 67 -12 41 1 55
-2 64 -16 10 -16 30 -18 212 -18 170 0 203 2 208 15 4 12 24 15 86 15 44 0 80
4 80 9 0 8 44 18 115 24 11 1 26 8 33 15 7 6 29 12 48 12 22 0 37 6 40 15 4
10 20 15 50 15 24 0 44 4 44 9 0 5 19 12 43 16 23 4 45 12 48 17 3 5 25 12 48
15 25 4 41 11 41 19 0 10 13 14 39 14 30 0 41 5 46 19 5 16 12 19 40 14 24 -4
39 -1 50 11 9 9 25 16 36 16 11 0 22 7 25 15 4 10 20 15 44 15 21 0 43 7 50
15 7 8 21 15 31 15 10 0 22 7 26 15 7 13 95 15 651 15 353 1 647 -2 652 -5 5
-3 183 -7 395 -8 330 -2 387 -4 395 -17 6 -8 8 -20 6 -26 -3 -7 7 -23 22 -36
29 -26 34 -28 57 -28 8 0 15 -6 15 -14 0 -9 17 -16 45 -20 25 -4 45 -11 45
-17 0 -5 17 -9 39 -9 29 0 40 5 43 18 4 15 13 17 41 14 36 -4 86 21 87 43 1
14 45 55 59 55 6 0 11 5 11 10 0 6 9 10 20 10 13 0 20 -7 20 -20 0 -10 9 -24
21 -30 12 -7 19 -19 17 -30 -4 -24 98 -130 124 -130 10 0 21 -7 24 -15 4 -8
18 -15 34 -15 17 0 30 -7 34 -16 5 -13 15 -15 46 -11 27 3 43 1 51 -9 7 -8 19
-12 28 -9 9 2 48 7 86 11 45 4 73 11 78 20 4 8 16 14 26 14 11 0 33 13 50 29
18 16 42 31 54 33 15 2 30 18 46 51 13 26 29 47 37 47 8 0 14 9 14 20 0 11 9
34 19 51 l19 31 12 -23 c20 -38 72 -89 92 -89 10 0 21 -7 25 -16 4 -12 14 -14
35 -10 21 4 31 1 40 -14 18 -28 79 -27 96 0 9 15 19 19 37 14 16 -4 30 0 40
10 9 9 22 16 29 16 6 0 32 20 56 45 l44 45 217 0 c135 0 220 4 224 10 9 15
1912 14 1921 -1 4 -7 22 -9 46 -6 34 5 41 2 45 -14 4 -14 14 -19 39 -19 23 0
37 -6 41 -16 4 -12 14 -14 35 -10 24 5 31 2 35 -14 4 -16 14 -20 43 -20 24 0
40 -5 44 -15 3 -8 14 -15 24 -15 11 0 26 -7 33 -16 10 -12 24 -15 52 -11 33 5
40 2 45 -15 4 -17 11 -19 45 -15 33 5 40 2 44 -14 4 -14 14 -19 38 -19 19 0
40 -6 47 -13 7 -7 36 -14 63 -16 31 -1 55 -8 62 -18 9 -12 24 -14 63 -11 43 4
54 2 63 -13 10 -16 25 -19 95 -19 64 0 84 -3 88 -15 5 -13 36 -15 193 -15 170
0 187 2 198 18 9 16 21 18 66 14 48 -4 55 -2 59 16 5 17 12 20 45 15 28 -4 42
-1 52 11 7 9 21 16 31 16 10 0 23 7 30 15 7 8 18 15 25 15 7 0 15 7 19 15 3 8
15 15 26 15 11 0 20 5 20 11 0 13 74 89 86 89 15 0 38 44 36 66 -2 14 6 24 23
32 38 18 5188 17 5194 0 6 -19 44 -47 64 -48 24 0 227 -204 227 -227 1 -22 29
-56 54 -66 12 -5 17 -14 13 -27 -3 -10 1 -24 9 -31 8 -6 14 -18 14 -25 0 -8 4
-14 10 -14 5 0 13 -12 16 -27 4 -15 13 -34 21 -41 7 -7 13 -24 13 -37 0 -15 7
-26 19 -30 17 -5 19 -13 14 -59 -5 -47 -3 -55 13 -58 16 -3 18 -13 15 -108 -2
-78 -6 -107 -17 -113 -8 -5 -14 -24 -14 -47 0 -21 -7 -45 -15 -54 -8 -8 -15
-28 -15 -45 0 -18 -5 -31 -13 -31 -14 0 -40 -38 -42 -62 -2 -22 -133 -150
-148 -145 -13 4 -57 -38 -57 -55 0 -6 -11 -8 -25 -6 -14 3 -30 -1 -36 -8 -6
-8 -19 -14 -29 -14 -10 0 -23 -7 -30 -15 -7 -8 -21 -15 -32 -15 -10 0 -21 -7
-24 -15 -4 -10 -20 -15 -45 -15 -26 0 -42 -5 -45 -15 -5 -11 -23 -15 -73 -15
-45 0 -74 -5 -89 -16 -35 -24 -316 -22 -343 2 -14 13 -31 15 -75 12 -49 -4
-57 -2 -62 14 -3 13 -14 18 -37 18 -18 0 -38 7 -45 15 -7 8 -21 15 -33 15 -19
0 -89 37 -95 51 -1 3 -14 4 -27 1 -14 -2 -25 0 -25 6 0 6 -11 23 -25 38 -14
15 -25 24 -25 20 0 -17 -39 17 -54 46 -21 42 -38 69 -53 86 -7 7 -13 24 -13
37 0 13 -7 25 -17 27 -16 4 -18 17 -13 132 4 92 9 129 19 135 9 6 11 18 6 40
-6 27 -4 31 15 31 19 0 21 4 15 30 -6 26 -4 30 14 30 11 0 22 9 26 20 3 11 11
20 16 20 6 0 7 5 4 10 -9 14 68 90 89 90 9 0 19 7 22 15 9 22 242 22 250 0 4
-10 20 -15 45 -15 21 0 39 -4 39 -9 0 -4 16 -25 34 -45 34 -35 34 -37 19 -64
-19 -33 -105 -102 -127 -102 -9 0 -16 -7 -16 -15 0 -9 -9 -15 -23 -15 -13 0
-37 -13 -53 -30 -16 -16 -34 -30 -40 -30 -17 0 -23 -31 -17 -84 5 -36 10 -46
24 -46 12 0 19 -7 19 -20 0 -16 7 -20 38 -21 86 -2 128 3 138 17 6 8 23 14 38
14 16 0 26 5 26 15 0 9 9 15 24 15 13 0 26 7 29 15 3 8 25 23 49 34 44 20 112
82 114 104 3 33 5 37 20 37 13 0 15 7 10 30 -4 23 -1 33 14 42 25 16 26 47 3
63 -12 9 -17 24 -15 49 3 27 0 36 -12 36 -9 0 -16 8 -16 18 0 16 -89 111 -97
105 -9 -8 -33 -1 -33 10 0 11 -87 57 -110 57 -5 0 -10 4 -10 9 0 5 -20 12 -45
15 -25 4 -45 11 -45 17 0 5 -50 9 -115 9 -94 0 -117 -3 -121 -15 -4 -10 -20
-15 -44 -15 -30 0 -39 -4 -43 -21 -4 -17 -11 -20 -29 -16 -22 5 -68 -21 -68
-38 0 -10 -76 -85 -86 -85 -15 0 -64 -82 -64 -106 0 -8 -9 -14 -21 -14 -17 0
-20 -4 -14 -29 5 -23 2 -29 -14 -34 -17 -4 -21 -13 -21 -46 0 -30 -4 -41 -15
-41 -11 0 -15 -13 -16 -52 0 -29 -4 -84 -8 -123 -6 -52 -5 -73 4 -84 8 -8 11
-28 7 -53 -4 -31 -1 -43 12 -50 9 -5 16 -21 16 -37 0 -16 7 -31 15 -35 8 -3
15 -15 15 -26 0 -11 7 -20 15 -20 8 0 22 -17 31 -37 18 -40 121 -153 139 -153
21 0 65 -25 70 -40 6 -20 122 -80 153 -80 12 0 25 -7 28 -15 4 -9 19 -15 40
-15 22 0 37 -6 41 -16 4 -12 19 -15 66 -13 46 2 62 -1 72 -14 11 -15 36 -17
208 -17 130 0 197 4 199 11 2 6 33 13 68 16 39 4 68 11 73 19 5 9 26 14 52 14
33 0 45 4 45 15 0 11 11 15 39 15 31 0 41 5 46 20 5 15 12 18 36 13 22 -4 29
-2 29 11 0 11 9 16 30 16 20 0 30 5 30 15 0 9 9 15 24 15 16 0 27 7 31 20 3
11 12 20 20 20 24 0 105 50 105 65 0 11 70 75 82 75 4 0 8 7 8 15 0 9 8 19 18
22 23 9 51 44 52 66 0 9 5 17 11 17 5 0 15 13 20 30 6 17 15 30 20 30 5 0 9
15 9 34 0 21 6 36 15 40 10 3 15 19 15 45 0 22 7 46 15 55 10 10 13 24 9 41
-5 21 -3 25 17 25 13 0 37 -14 53 -30 22 -23 38 -30 67 -30 23 0 39 -5 43 -15
8 -22 221 -22 230 0 3 10 19 15 46 15 27 0 43 5 46 15 4 8 17 15 30 15 31 0
67 22 121 74 33 30 41 45 37 62 -4 16 0 24 15 29 18 6 21 14 21 70 0 55 -3 64
-21 70 -16 6 -19 12 -14 36 5 22 3 29 -9 29 -9 0 -24 20 -36 45 -16 35 -29 48
-65 64 -25 11 -48 27 -51 35 -3 8 -23 17 -45 21 -21 4 -41 11 -45 16 -7 12
-44 12 -44 0 0 -5 -20 -12 -45 -15 -37 -6 -54 -17 -99 -64 -34 -34 -56 -66
-56 -79 0 -26 37 -73 57 -73 7 0 13 -4 13 -10 0 -5 11 -10 25 -10 14 0 25 5
25 10 0 6 14 10 30 10 17 0 30 -5 30 -11 0 -6 18 -9 45 -8 32 2 50 -2 65 -16
24 -22 19 -45 -16 -80 -13 -13 -24 -28 -24 -34 0 -5 -17 -7 -39 -4 -33 5 -39
2 -44 -17 -4 -16 -11 -21 -22 -16 -9 3 -50 6 -91 6 -59 0 -74 3 -74 15 0 10
-10 15 -30 15 -16 0 -30 4 -30 9 0 5 -31 40 -70 77 -47 45 -70 75 -70 91 0 14
-6 23 -15 23 -11 0 -15 11 -15 39 0 31 -4 40 -21 44 -18 5 -20 11 -14 36 6 27
4 31 -15 31 -19 0 -21 4 -15 30 6 26 4 30 -15 30 -16 0 -21 5 -19 22 3 27 -20
68 -38 68 -7 0 -14 6 -15 13 0 6 -2 17 -2 22 -4 23 -32 55 -48 55 -10 0 -18 7
-18 15 0 9 -11 27 -24 40 -13 13 -26 35 -30 49 -5 19 -13 26 -30 26 -12 0 -31
9 -41 20 -17 19 -17 20 1 20 10 0 370 0 798 0 676 0 782 -2 796 -15 9 -8 26
-15 38 -15 13 0 22 -6 22 -15 0 -8 3 -15 8 -15 4 0 21 -12 37 -28 17 -15 39
-29 50 -30 25 -5 165 -148 165 -170 1 -20 34 -62 49 -62 6 0 11 -13 11 -30 0
-24 4 -30 21 -30 17 0 20 -5 17 -24 -4 -17 0 -26 12 -29 15 -4 17 -14 13 -78
-3 -46 -10 -78 -19 -85 -8 -6 -14 -28 -14 -48 0 -26 -4 -36 -16 -36 -12 0 -14
-7 -9 -30 6 -26 4 -30 -14 -30 -17 0 -21 -6 -21 -30 0 -20 -5 -30 -15 -30 -8
0 -15 -9 -15 -20 0 -11 -7 -23 -15 -26 -8 -4 -15 -12 -15 -19 0 -7 -7 -18 -15
-25 -8 -7 -15 -18 -15 -26 0 -7 -13 -28 -30 -46 -17 -18 -30 -38 -30 -45 0 -6
-13 -27 -30 -45 -16 -18 -30 -43 -30 -55 0 -13 -6 -23 -14 -23 -8 0 -17 -11
-20 -25 -4 -14 -11 -25 -16 -25 -6 0 -10 -9 -10 -19 0 -11 -7 -26 -15 -35 -8
-8 -15 -28 -15 -44 0 -17 -6 -32 -15 -36 -11 -4 -15 -21 -15 -61 0 -42 -3 -55
-15 -55 -13 0 -15 -31 -15 -219 0 -182 3 -222 15 -235 8 -8 15 -29 15 -46 0
-24 5 -33 21 -37 13 -4 19 -12 17 -27 -4 -36 10 -46 67 -46 38 0 54 4 59 15 3
8 14 15 23 15 10 0 38 20 61 45 23 25 50 45 60 45 20 1 62 34 62 50 0 6 17 19
38 28 54 26 82 45 82 59 0 7 17 20 38 29 40 18 212 181 212 201 0 6 13 26 30
44 20 23 28 39 24 55 -4 16 0 23 15 27 16 4 21 13 21 41 0 24 5 39 16 43 13 5
15 21 13 92 -2 48 -1 91 2 96 2 6 3 65 1 133 -3 98 -6 122 -18 122 -10 0 -14
13 -14 46 0 38 -4 47 -21 51 -16 5 -19 11 -14 34 5 22 3 29 -9 29 -10 0 -16 9
-16 23 -1 24 -32 67 -49 67 -10 0 -12 5 -15 37 -1 7 -20 32 -44 57 -31 33 -42
52 -42 75 0 19 -6 34 -15 37 -9 4 -15 19 -15 40 0 19 -4 34 -10 34 -5 0 -13
12 -16 27 -4 15 -13 34 -21 41 -7 7 -13 19 -13 27 0 7 -9 15 -21 18 -13 4 -19
12 -17 25 4 22 -54 92 -77 92 -8 0 -15 6 -15 14 0 16 -12 30 -58 65 -18 13
-32 29 -32 36 0 6 -11 18 -25 25 -38 21 -31 36 15 32 28 -3 40 -9 40 -19 0
-12 9 -15 45 -11 37 5 45 2 50 -13 5 -14 16 -19 40 -19 18 0 40 -7 49 -15 8
-9 18 -16 21 -15 34 2 56 -2 67 -13 7 -7 38 -14 68 -16 30 -1 60 -8 65 -15 6
-7 20 -16 33 -20 12 -4 22 -12 22 -17 0 -5 3 -8 8 -8 27 4 63 -3 76 -16 8 -9
18 -16 21 -15 35 2 56 -3 70 -16 11 -12 26 -15 52 -11 29 5 36 3 40 -13 4 -15
14 -20 43 -20 23 0 40 -5 43 -14 3 -7 24 -16 46 -20 23 -3 41 -11 41 -16 0 -6
11 -10 24 -10 13 0 29 -7 36 -15 7 -9 29 -15 52 -15 24 0 41 -5 44 -14 3 -7
23 -16 45 -20 21 -3 39 -11 39 -17 0 -7 11 -9 31 -5 25 5 32 2 36 -14 4 -15
14 -20 39 -20 22 0 37 -6 40 -15 4 -8 16 -15 29 -15 12 0 28 -7 35 -15 7 -8
29 -15 50 -15 24 0 40 -5 44 -15 3 -8 14 -15 24 -15 11 0 25 -7 32 -15 7 -8
29 -15 50 -15 24 0 40 -5 44 -15 3 -8 14 -15 24 -15 11 0 25 -7 32 -15 7 -8
29 -15 50 -15 24 0 40 -5 44 -15 3 -8 14 -15 24 -15 11 0 25 -7 32 -15 7 -8
29 -15 50 -15 23 0 40 -5 43 -14 3 -7 24 -16 46 -20 23 -3 41 -11 41 -17 0 -7
11 -9 31 -5 25 5 32 2 36 -14 3 -11 13 -20 23 -20 10 0 23 -7 30 -15 7 -8 20
-15 30 -15 10 0 45 -27 79 -60 33 -33 63 -60 66 -60 27 1 35 -2 35 -11 0 -13
40 -48 56 -49 23 0 64 -26 70 -43 4 -14 12 -17 29 -13 18 5 25 1 30 -14 4 -13
15 -20 31 -20 13 0 24 -6 24 -12 0 -12 87 -58 110 -58 5 0 10 -4 10 -10 0 -5
13 -10 29 -10 16 0 31 -6 35 -15 3 -8 14 -15 24 -15 11 0 26 -7 33 -16 10 -12
24 -15 52 -11 33 5 40 2 44 -14 5 -16 15 -19 74 -19 53 0 71 -4 75 -15 9 -23
370 -22 396 1 14 13 36 16 102 15 68 -2 85 1 89 13 5 12 22 16 76 16 52 0 70
4 75 15 4 11 22 15 75 15 52 0 70 4 75 15 4 12 23 15 85 15 61 0 80 3 85 15 3
8 17 15 31 15 14 0 39 10 55 22 25 18 30 29 30 63 0 42 -24 75 -55 75 -8 0
-15 7 -15 15 0 18 -70 84 -90 85 -8 0 -28 14 -44 30 -16 17 -40 30 -53 30 -14
0 -23 6 -23 15 0 10 -10 15 -30 15 -21 0 -30 5 -30 16 0 13 -7 15 -31 10 -25
-5 -32 -2 -36 14 -4 16 -14 20 -43 20 -26 0 -40 5 -44 16 -5 13 -15 15 -46 11
-33 -4 -40 -2 -45 14 -5 16 -16 19 -61 19 -39 0 -56 4 -60 15 -5 11 -23 15
-74 15 -51 0 -69 4 -74 15 -4 11 -22 15 -76 15 -55 0 -72 4 -77 16 -4 12 -22
15 -91 13 -70 -2 -87 1 -98 15 -10 15 -29 17 -134 15 -66 -1 -124 1 -127 5 -4
3 -17 6 -29 6 -13 0 -26 4 -29 10 -8 13 -219 13 -243 1 -36 -20 -60 -23 -163
-21 -88 1 -107 -2 -112 -14 -9 -22 -119 -22 -141 -1 -8 9 -18 16 -21 15 -35
-2 -56 3 -69 15 -8 9 -18 16 -21 15 -35 -2 -56 3 -70 16 -11 12 -26 15 -52 11
-29 -5 -36 -3 -40 13 -4 15 -14 20 -43 20 -24 0 -40 5 -44 15 -3 8 -14 15 -25
15 -11 0 -26 6 -33 14 -8 8 -30 13 -52 11 -30 -2 -40 2 -43 16 -4 14 -15 19
-39 19 -23 0 -37 6 -41 16 -4 12 -14 14 -35 10 -24 -5 -31 -2 -35 14 -4 15
-14 20 -39 20 -22 0 -37 6 -40 15 -4 8 -16 15 -29 15 -12 0 -28 7 -35 15 -7 9
-29 15 -52 15 -25 0 -41 5 -44 15 -4 9 -19 15 -40 15 -22 0 -37 6 -40 15 -4 8
-16 15 -29 15 -12 0 -29 7 -36 16 -10 12 -24 15 -52 11 -33 -5 -40 -2 -45 15
-4 17 -11 19 -43 15 -31 -4 -39 -2 -44 14 -5 14 -16 19 -46 19 -26 0 -42 5
-45 15 -4 10 -20 15 -45 15 -26 0 -42 5 -45 15 -4 10 -20 15 -44 15 -22 0 -41
4 -44 9 -4 5 -24 12 -47 16 -22 4 -38 9 -36 11 2 3 1630 3 3618 2 1988 -2
4044 -2 4570 0 880 3 957 1 963 -14 4 -11 13 -14 30 -10 19 5 26 1 31 -14 3
-11 14 -20 24 -20 10 0 24 -7 31 -15 7 -8 22 -15 34 -15 12 0 31 -7 42 -15 10
-8 29 -15 42 -15 12 0 25 -7 28 -15 4 -8 18 -15 34 -15 16 0 30 -7 34 -16 4
-12 13 -14 32 -10 20 5 27 3 31 -14 3 -12 14 -20 27 -20 12 0 31 -7 42 -15 10
-8 31 -15 45 -15 15 0 30 -7 33 -16 4 -12 13 -14 32 -10 20 5 27 3 31 -14 4
-15 14 -20 39 -20 23 0 37 -6 41 -16 4 -12 14 -14 35 -10 24 5 31 2 35 -14 4
-16 14 -20 44 -20 26 0 42 -5 45 -15 4 -10 20 -15 45 -15 28 0 39 -4 39 -15 0
-11 12 -15 45 -15 33 0 45 -4 45 -15 0 -11 12 -15 45 -15 26 0 47 -5 52 -13 4
-8 31 -17 58 -21 28 -3 52 -11 53 -16 2 -6 29 -10 59 -10 37 0 60 -5 67 -14 7
-9 36 -16 79 -19 40 -2 72 -9 76 -16 6 -9 35 -12 104 -10 66 2 100 -1 111 -10
8 -7 19 -11 23 -8 4 3 76 8 158 12 113 5 152 10 158 21 5 8 24 14 46 14 25 0
41 5 45 15 3 8 16 15 29 15 37 0 187 83 187 104 0 10 42 56 52 56 18 0 48 36
48 56 0 12 7 24 15 28 12 4 15 31 15 150 0 133 -1 144 -19 149 -16 4 -19 11
-14 44 4 28 1 44 -11 55 -9 9 -16 25 -16 35 0 18 -32 53 -49 53 -11 0 -23 29
-16 40 8 13 -79 86 -98 82 -11 -2 -20 3 -23 15 -6 20 -69 53 -103 53 -12 0
-24 7 -27 15 -5 12 -31 15 -144 15 -130 0 -139 -1 -145 -20 -5 -15 -12 -19
-30 -14 -17 4 -26 0 -35 -16 -6 -12 -19 -20 -28 -18 -22 5 -102 -69 -102 -94
0 -10 -7 -18 -15 -18 -8 0 -15 -5 -15 -12 0 -6 -7 -19 -16 -29 -24 -26 -25
-256 -1 -274 9 -7 17 -17 17 -24 0 -6 6 -11 14 -11 7 0 21 -11 30 -24 8 -14
25 -27 36 -31 11 -3 20 -11 20 -17 0 -21 46 -47 83 -48 24 0 40 -5 43 -15 5
-11 23 -15 71 -15 56 0 67 3 88 26 14 15 25 31 25 35 0 5 7 9 15 9 11 0 15 12
15 45 0 33 -4 45 -15 45 -8 0 -16 6 -16 13 -1 6 -2 19 -3 27 0 8 -22 25 -48
37 -27 13 -48 27 -48 32 0 15 -60 71 -76 71 -12 0 -13 8 -8 37 7 38 21 56 36
47 4 -3 8 -1 8 5 0 6 12 14 28 17 15 4 32 13 37 20 6 6 36 14 69 16 51 4 59 2
64 -14 2 -10 12 -18 22 -18 10 0 25 -6 32 -13 7 -8 18 -12 24 -10 21 7 84 -69
84 -102 0 -9 9 -15 21 -15 18 0 20 -4 14 -30 -5 -21 -2 -35 9 -46 11 -11 16
-35 16 -82 0 -37 3 -77 6 -89 5 -19 2 -23 -16 -23 -19 0 -21 -4 -15 -30 5 -22
3 -30 -7 -30 -16 -1 -78 -56 -78 -70 0 -5 -11 -10 -25 -10 -14 0 -28 -7 -31
-15 -4 -10 -20 -15 -51 -15 -31 0 -50 -5 -58 -16 -16 -23 -309 -23 -335 1 -12
10 -38 15 -89 15 -54 0 -73 4 -77 15 -5 11 -21 15 -60 15 -34 0 -56 5 -61 13
-4 8 -30 17 -58 21 -27 3 -51 11 -53 16 -2 6 -24 10 -48 10 -32 0 -44 4 -44
15 0 11 -12 15 -45 15 -31 0 -47 5 -51 15 -4 10 -20 15 -44 15 -23 0 -40 5
-43 14 -3 7 -24 16 -46 20 -23 3 -41 11 -41 16 0 6 -11 10 -24 10 -14 0 -32 7
-41 16 -11 12 -26 15 -52 11 -29 -5 -36 -3 -40 13 -4 16 -14 20 -44 20 -27 0
-39 4 -39 14 0 7 -12 16 -27 19 -16 3 -50 12 -78 19 -62 18 -42 27 44 21 54
-4 65 -1 77 15 11 16 22 18 65 14 41 -4 54 -1 61 12 6 10 22 16 47 16 30 0 40
4 44 20 4 16 11 19 36 14 20 -4 31 -2 31 5 0 6 5 11 10 11 26 0 109 47 114 63
3 12 11 17 23 15 35 -8 183 152 183 199 0 7 9 13 21 13 18 0 20 4 14 29 -5 24
-2 30 14 36 16 5 21 15 21 45 0 24 5 40 15 44 12 4 15 32 15 161 0 129 -3 157
-15 161 -10 4 -15 20 -15 50 0 32 -4 44 -15 44 -10 0 -15 11 -15 35 0 19 -4
35 -10 35 -5 0 -12 11 -16 25 -3 14 -12 25 -20 25 -8 0 -15 6 -15 13 -3 27 -5
33 -19 55 -8 12 -20 22 -26 22 -6 0 -22 15 -34 34 -13 18 -36 42 -52 52 -15
10 -28 23 -28 27 0 17 -45 46 -63 41 -13 -4 -20 1 -24 15 -3 13 -13 21 -26 21
-11 0 -28 7 -38 16 -15 13 -48 16 -194 17 -158 1 -178 0 -186 -16 -7 -11 -22
-17 -49 -17 -21 0 -40 -3 -42 -8 -4 -9 -65 -52 -75 -52 -11 -1 -53 -37 -53
-45 0 -11 -44 -55 -55 -55 -6 0 -22 -18 -35 -40 -14 -22 -28 -40 -32 -40 -5 0
-8 -9 -8 -19 0 -11 -7 -27 -16 -35 -10 -11 -15 -30 -13 -61 2 -24 0 -47 -4
-51 -9 -9 -9 -69 0 -78 4 -4 6 -27 4 -51 -2 -35 1 -45 13 -45 10 0 16 -9 16
-22 1 -26 26 -61 53 -71 9 -3 17 -12 17 -19 0 -19 94 -78 125 -78 14 0 28 -7
31 -15 9 -22 222 -22 230 0 4 8 17 15 30 15 27 0 89 36 118 68 14 16 19 36 18
78 0 47 -5 61 -28 85 -27 28 -30 29 -128 29 -91 0 -103 -2 -114 -20 -9 -16
-19 -19 -40 -14 -15 4 -31 12 -37 18 -5 6 -18 10 -28 8 -10 -2 -20 4 -24 15
-9 23 -28 43 -42 43 -7 0 -12 25 -13 60 -1 33 -2 68 -2 78 -1 10 6 16 16 16
14 -1 16 4 11 27 -4 22 -2 29 10 29 9 0 27 14 39 31 14 19 29 28 40 26 9 -3
22 1 29 9 6 8 20 14 30 14 10 0 20 8 24 19 5 15 13 18 51 13 36 -4 48 -1 58
14 11 14 25 17 72 15 37 -1 63 -8 70 -17 6 -8 28 -14 48 -14 20 0 36 -4 36 -8
0 -12 118 -129 136 -136 10 -4 12 -14 8 -31 -5 -21 -3 -25 15 -25 19 0 21 -4
15 -38 -4 -28 -2 -41 10 -51 11 -9 16 -30 16 -67 0 -29 5 -56 10 -59 14 -8 13
-102 -1 -111 -8 -4 -10 -27 -6 -67 5 -53 3 -60 -14 -64 -10 -3 -19 -13 -19
-23 0 -10 -6 -23 -14 -29 -8 -7 -12 -21 -9 -31 4 -13 -1 -22 -13 -27 -10 -4
-30 -20 -44 -37 -52 -62 -68 -76 -87 -76 -11 0 -26 -7 -33 -15 -7 -8 -19 -15
-27 -15 -8 0 -21 -7 -29 -15 -9 -8 -24 -15 -34 -15 -10 0 -20 -9 -23 -19 -4
-16 -11 -19 -44 -14 -34 4 -41 2 -45 -15 -5 -17 -12 -19 -52 -15 -37 5 -50 2
-59 -11 -11 -15 -42 -17 -302 -17 -244 0 -290 2 -293 14 -2 8 -20 17 -43 21
-21 3 -39 11 -39 17 0 7 -11 9 -29 6 -24 -5 -31 -2 -36 13 -4 11 -15 20 -25
20 -10 0 -25 7 -34 15 -8 8 -30 15 -49 15 -22 0 -37 6 -41 15 -3 8 -14 15 -25
15 -11 0 -26 7 -35 15 -8 8 -30 15 -49 15 -22 0 -37 6 -41 15 -3 8 -14 15 -25
15 -11 0 -27 7 -36 16 -11 12 -26 15 -50 11 -28 -5 -35 -2 -40 14 -5 14 -16
19 -46 19 -28 0 -39 4 -39 15 0 11 -12 15 -45 15 -33 0 -45 4 -45 15 0 11 -12
15 -45 15 -26 0 -47 5 -52 13 -4 8 -30 17 -57 21 -28 3 -52 10 -55 15 -4 4
-30 11 -60 14 -30 4 -58 12 -62 18 -4 8 -27 10 -64 7 -51 -4 -58 -2 -63 14 -4
17 -14 19 -90 17 -70 -2 -87 1 -98 15 -10 14 -28 17 -116 16 -100 -2 -124 1
-160 21 -10 5 -182 9 -395 9 -317 -1 -381 -3 -397 -15 -15 -11 -50 -15 -144
-15 -107 0 -127 -3 -137 -17 -11 -15 -26 -17 -90 -14 -65 2 -78 0 -90 -16 -11
-15 -24 -17 -75 -15 -50 3 -64 1 -74 -14 -11 -14 -25 -17 -68 -15 -43 2 -57
-1 -61 -13 -5 -12 -21 -16 -61 -16 -39 0 -55 -4 -60 -15 -4 -10 -20 -15 -50
-15 -24 0 -46 -5 -48 -10 -2 -6 -27 -13 -55 -17 -38 -4 -54 -11 -58 -23 -5
-14 -13 -17 -43 -13 -27 4 -42 1 -51 -11 -7 -9 -24 -16 -37 -16 -13 0 -24 -4
-24 -10 0 -5 -18 -13 -41 -16 -22 -4 -43 -13 -46 -20 -3 -8 -20 -14 -40 -14
-19 0 -41 -7 -49 -15 -9 -8 -24 -15 -34 -15 -10 0 -21 -9 -25 -20 -5 -15 -12
-18 -36 -13 -22 4 -29 2 -29 -11 0 -11 -9 -16 -30 -16 -20 0 -30 -5 -30 -15 0
-10 -10 -15 -30 -15 -20 0 -30 -5 -30 -15 0 -10 -10 -15 -30 -15 -20 0 -30 -5
-30 -15 0 -13 -315 -15 -2774 -15 -1526 0 -2782 -3 -2791 -6 -11 -5 -18 0 -22
15 -5 18 -13 21 -59 21 -39 0 -56 4 -60 15 -4 11 -21 15 -59 15 -38 0 -55 4
-59 15 -4 11 -21 15 -61 15 -40 0 -57 4 -61 15 -5 11 -22 15 -65 15 -46 0 -59
3 -59 15 0 12 -14 15 -70 15 -47 0 -71 4 -77 14 -5 8 -34 15 -72 19 -35 3 -67
11 -71 17 -5 7 -33 11 -80 9 -59 -2 -75 1 -86 15 -10 14 -26 17 -90 15 -63 -2
-79 1 -90 15 -11 15 -26 17 -103 15 -50 -2 -93 0 -97 4 -4 4 -16 7 -26 7 -10
0 -18 4 -18 9 0 5 -65 11 -143 13 -103 2 -149 7 -160 17 -13 10 -48 12 -164 8
-82 -3 -164 -2 -183 3 -38 9 -34 10 58 16 24 2 51 9 59 16 10 8 36 12 71 9 35
-2 57 1 62 9 4 6 36 14 71 17 38 4 67 11 72 19 5 10 29 14 76 14 52 0 70 4 75
15 4 11 23 15 80 15 46 0 76 4 78 11 2 6 37 14 78 17 50 3 79 10 86 20 8 12
29 15 88 13 64 -2 80 1 90 15 11 14 27 17 90 15 64 -2 80 1 90 15 11 14 28 16
105 15 77 -2 95 1 105 15 11 14 29 16 113 15 77 -2 102 1 106 11 4 11 37 15
137 17 87 2 140 7 154 16 15 8 72 13 186 15 96 1 167 6 171 12 3 5 31 8 61 7
30 -1 60 1 66 5 13 8 575 8 662 0 30 -3 60 -10 66 -15 7 -6 81 -9 175 -8 136
1 165 -2 174 -14 9 -12 37 -16 124 -18 81 -2 115 -7 118 -16 4 -9 29 -13 84
-13 55 0 80 -4 86 -14 5 -8 34 -15 72 -19 35 -3 67 -11 71 -18 5 -8 26 -10 65
-7 50 4 58 2 63 -14 4 -15 15 -18 73 -18 47 0 71 -4 76 -14 5 -8 34 -15 72
-19 35 -3 67 -11 71 -17 5 -7 33 -11 80 -9 59 2 75 -1 85 -15 11 -14 28 -17
104 -15 51 1 94 -1 98 -5 3 -3 15 -6 25 -6 10 0 18 -4 18 -10 0 -6 79 -10 216
-10 190 0 218 2 229 16 10 14 28 17 101 15 145 -3 259 -13 262 -22 3 -6 123
-9 295 -9 261 2 292 0 303 -15 10 -13 26 -16 74 -14 49 2 65 -1 75 -14 10 -14
32 -17 126 -18 63 -1 159 -4 214 -8 62 -5 105 -3 113 3 7 5 64 8 126 7 95 -2
114 0 119 13 5 12 21 16 69 16 51 0 65 4 75 19 10 15 20 18 57 14 38 -5 46 -3
46 11 0 14 33 20 95 16 3 -1 13 6 21 15 9 8 24 15 35 15 11 0 22 7 25 15 4 10
20 15 44 15 29 0 39 4 43 20 4 16 11 19 36 14 24 -5 31 -3 31 10 0 12 10 16
39 16 22 0 44 6 51 15 7 8 20 15 30 15 10 0 20 9 23 20 4 16 11 19 30 15 20
-5 27 -2 32 15 5 17 12 20 30 16 14 -4 27 0 35 9 7 8 20 15 30 15 9 0 30 13
46 30 16 16 36 30 45 30 9 0 29 13 45 30 16 16 36 30 44 30 20 0 220 200 220
220 1 8 14 26 30 40 25 20 30 32 30 67 0 36 -3 43 -20 43 -13 0 -20 7 -20 20
0 17 -7 20 -45 20 -32 0 -47 5 -52 16 -5 12 -25 15 -119 13 -71 -1 -119 3
-127 10 -8 6 -16 9 -18 7 -2 -2 -114 -7 -249 -11 -149 -4 -250 -11 -258 -18
-7 -6 -49 -12 -93 -15 -58 -3 -79 -8 -79 -18 0 -10 -16 -14 -60 -14 -45 0 -62
-4 -66 -15 -4 -11 -21 -15 -59 -15 -38 0 -55 -4 -59 -15 -4 -10 -20 -15 -51
-15 -33 0 -45 -4 -45 -15 0 -11 -12 -15 -44 -15 -30 0 -46 -5 -50 -15 -3 -9
-19 -15 -41 -15 -22 0 -38 -6 -41 -15 -4 -10 -20 -15 -44 -15 -29 0 -39 -4
-43 -20 -4 -16 -11 -19 -35 -14 -21 4 -31 2 -35 -10 -4 -10 -18 -16 -40 -16
-19 0 -40 -7 -47 -15 -7 -8 -20 -15 -30 -15 -10 0 -23 -7 -30 -15 -7 -8 -21
-15 -31 -15 -10 0 -21 -9 -24 -20 -5 -15 -12 -19 -30 -14 -18 4 -25 1 -30 -15
-5 -16 -12 -20 -30 -15 -18 4 -25 1 -30 -16 -5 -15 -13 -20 -29 -18 -13 1 -38
-9 -59 -25 -20 -15 -43 -27 -51 -27 -9 0 -16 -7 -16 -15 0 -9 -9 -15 -23 -15
-13 0 -37 -13 -53 -30 -16 -16 -34 -30 -40 -30 -7 0 -26 -13 -44 -30 -25 -24
-41 -30 -75 -30 -24 0 -45 -4 -47 -9 -1 -4 -51 -11 -110 -13 -62 -4 -106 -2
-102 3 3 5 11 9 17 9 25 0 120 88 123 113 3 32 5 37 15 37 21 0 48 44 42 68
-4 18 -1 25 16 29 22 6 24 15 25 113 0 117 -4 150 -19 150 -14 0 -20 13 -16
34 3 16 -82 96 -101 96 -10 0 -21 6 -24 14 -3 8 -19 18 -35 21 -16 4 -29 11
-29 16 0 5 -20 9 -45 9 -31 0 -47 5 -51 15 -9 21 -132 21 -140 0 -4 -10 -20
-15 -45 -15 -39 0 -69 -19 -82 -53 -3 -9 -11 -17 -17 -17 -5 0 -10 -6 -10 -14
0 -7 -9 -16 -20 -19 -19 -5 -20 -14 -20 -121 0 -96 3 -116 15 -116 14 0 20
-12 16 -34 -3 -16 22 -36 45 -36 15 0 24 -6 24 -15 0 -11 12 -15 45 -15 25 0
45 5 45 10 0 6 8 10 18 10 10 0 32 15 50 33 24 25 32 42 32 69 0 21 -6 38 -14
41 -25 10 -26 59 -3 84 25 26 49 29 67 9 6 -8 21 -16 33 -18 12 -2 22 -10 22
-18 0 -8 6 -21 13 -28 6 -7 12 -34 12 -60 0 -26 3 -57 6 -70 5 -18 2 -24 -15
-29 -11 -3 -21 -13 -21 -23 0 -10 -7 -23 -15 -30 -8 -7 -15 -20 -15 -29 0 -26
-65 -95 -83 -88 -9 3 -17 3 -19 -1 -6 -15 -76 -52 -97 -52 -12 0 -24 -7 -27
-15 -5 -11 -23 -15 -73 -15 -44 0 -74 -5 -89 -16 -19 -13 -57 -15 -255 -13
-299 2 -290 2 -294 16 -3 9 -32 13 -99 13 -75 0 -96 3 -100 15 -5 11 -24 15
-80 15 -59 0 -74 3 -74 15 0 12 -14 15 -70 15 -47 0 -71 4 -77 14 -5 8 -34 15
-73 19 -35 3 -66 10 -68 16 -2 6 -31 11 -68 11 -48 0 -64 4 -64 14 0 10 -21
15 -79 18 -44 3 -87 10 -95 17 -10 9 -41 12 -93 10 -59 -2 -84 1 -103 13 -19
13 -55 17 -154 19 -86 2 -137 8 -155 17 -21 11 -77 13 -293 9 -146 -2 -272 -1
-279 3 -15 10 12 18 59 18 18 1 40 7 49 14 10 8 39 11 86 9 48 -2 72 1 77 10
5 7 39 14 88 17 65 4 81 8 85 22 4 14 13 16 62 12 37 -3 60 -1 64 7 4 6 31 14
60 18 30 3 55 12 58 19 3 9 21 14 49 14 32 0 44 4 44 15 0 11 11 15 39 15 31
0 41 5 46 20 5 15 12 18 36 13 22 -4 29 -2 29 11 0 11 9 16 30 16 20 0 30 5
30 15 0 9 9 15 24 15 16 0 27 7 31 20 3 11 13 20 21 20 21 0 50 19 101 68 24
23 52 42 61 42 23 0 162 140 162 163 0 9 3 17 8 17 4 0 18 16 31 35 13 19 28
35 33 35 13 0 47 41 48 57 0 6 13 27 30 45 16 18 30 43 30 55 0 13 6 23 13 23
18 0 41 41 38 68 -2 16 3 22 18 22 17 0 21 6 21 30 0 20 5 30 15 30 10 0 15
10 15 30 0 20 5 30 15 30 10 0 15 10 15 30 0 20 5 30 15 30 10 0 15 10 15 30
0 20 5 30 15 30 24 0 19 51 -5 57 -11 3 -20 14 -20 24 0 17 -9 19 -100 19 -82
0 -100 -3 -100 -15 0 -12 -15 -15 -74 -15 -63 0 -74 -3 -79 -19 -4 -16 -12
-18 -57 -13 -42 4 -55 1 -62 -12 -6 -11 -23 -16 -53 -16 -33 0 -45 -4 -45 -15
0 -13 -36 -19 -95 -15 -3 1 -13 -6 -21 -15 -13 -12 -34 -17 -69 -15 -3 1 -13
-6 -21 -15 -9 -8 -24 -15 -35 -15 -11 0 -22 -7 -25 -15 -4 -9 -19 -15 -41 -15
-19 0 -41 -7 -49 -15 -9 -8 -24 -15 -33 -15 -10 0 -24 -7 -31 -15 -7 -8 -20
-15 -30 -15 -10 0 -23 -7 -30 -15 -7 -8 -19 -15 -27 -15 -8 0 -32 -14 -53 -30
-21 -17 -45 -30 -54 -30 -9 0 -16 -6 -16 -14 0 -15 -42 -46 -63 -46 -16 0
-189 -175 -181 -183 7 -7 -37 -67 -49 -67 -13 0 -34 -27 -57 -77 -11 -24 -25
-43 -30 -43 -14 0 -105 -100 -105 -115 0 -15 -64 -95 -76 -95 -12 0 -134 -130
-138 -147 -6 -27 -35 -51 -66 -55 -16 -1 -36 -9 -43 -16 -7 -6 -29 -12 -48
-12 -22 0 -37 -6 -40 -15 -4 -11 -21 -15 -59 -15 -38 0 -55 -4 -59 -15 -4 -11
-23 -15 -81 -15 -60 0 -75 -3 -75 -15 0 -13 -22 -15 -139 -15 -102 0 -140 -3
-143 -12 -3 -9 -41 -14 -129 -16 -93 -3 -128 -8 -141 -19 -14 -12 -40 -15
-116 -14 -82 2 -100 -1 -105 -13 -5 -13 -24 -16 -91 -16 -65 0 -85 -3 -90 -15
-4 -12 -24 -15 -90 -15 -58 0 -85 -4 -89 -12 -3 -9 -33 -14 -88 -16 -59 -3
-86 -8 -92 -18 -6 -10 -28 -14 -76 -14 -52 0 -70 -4 -75 -15 -4 -11 -22 -15
-75 -15 -52 0 -70 -4 -75 -15 -4 -11 -22 -15 -74 -15 -37 0 -73 -5 -79 -11 -6
-6 -39 -13 -74 -16 -38 -4 -67 -11 -72 -19 -5 -10 -29 -14 -76 -14 -58 0 -69
-3 -73 -18 -5 -16 -13 -18 -63 -14 -39 3 -60 1 -65 -7 -4 -7 -36 -15 -71 -18
-38 -4 -67 -11 -72 -19 -5 -10 -28 -14 -70 -14 -50 0 -65 -4 -74 -18 -9 -16
-20 -18 -68 -14 -40 3 -60 1 -65 -8 -5 -7 -38 -15 -81 -18 -52 -3 -78 -10 -86
-21 -9 -12 -25 -15 -73 -13 -51 3 -64 1 -75 -15 -11 -15 -24 -17 -75 -15 -50
3 -64 1 -74 -14 -11 -14 -26 -17 -83 -15 -56 2 -72 -1 -76 -13 -5 -12 -22 -16
-75 -16 -37 0 -73 -5 -79 -11 -6 -6 -45 -14 -85 -17 -53 -4 -76 -10 -85 -22
-9 -13 -23 -16 -69 -12 -38 3 -59 1 -64 -8 -4 -7 -38 -14 -76 -17 -38 -3 -72
-10 -75 -15 -4 -6 -37 -13 -75 -15 -38 -3 -72 -10 -75 -15 -4 -6 -37 -13 -75
-15 -38 -3 -72 -10 -75 -15 -4 -6 -36 -12 -73 -15 -46 -4 -66 -10 -66 -19 0
-10 -17 -14 -64 -14 -38 0 -66 -5 -68 -11 -2 -6 -34 -13 -70 -16 -55 -5 -67
-9 -72 -26 -3 -13 -10 -18 -21 -13 -9 3 -626 6 -1371 6 -1347 0 -1354 0 -1354
20 0 11 5 20 10 20 6 0 10 31 10 74 0 57 -4 79 -19 97 -14 17 -17 33 -13 66 4
35 2 43 -12 43 -12 0 -16 9 -16 35 0 24 -5 35 -15 35 -8 0 -15 8 -15 17 0 26
-80 103 -107 103 -15 0 -23 6 -23 16 0 13 -7 15 -31 10 -25 -5 -32 -2 -36 14
-5 19 -14 20 -122 20 -105 0 -117 -2 -129 -20 -9 -15 -19 -18 -42 -14 -18 4
-30 2 -30 -4 0 -6 -13 -13 -30 -17 -16 -4 -30 -12 -30 -20 0 -7 -12 -21 -27
-31 -16 -10 -45 -36 -65 -58 -32 -33 -38 -47 -38 -83 0 -24 4 -43 10 -43 5 0
12 -11 16 -25 3 -14 11 -25 16 -25 12 0 58 -42 58 -53 0 -16 45 -46 68 -47 13
0 22 -6 22 -16 0 -13 7 -15 29 -11 24 5 31 2 36 -13 5 -17 16 -20 69 -20 55 0
65 3 89 28 15 15 27 37 27 49 0 11 7 23 15 27 20 7 20 75 0 82 -8 4 -15 16
-15 28 0 28 -18 46 -47 46 -13 0 -26 7 -30 16 -5 13 -15 15 -53 10 -37 -5 -49
-3 -53 9 -10 24 25 35 111 35 57 0 83 -4 92 -14 6 -8 18 -12 26 -9 19 7 68
-42 61 -61 -3 -8 1 -20 9 -26 8 -7 14 -21 14 -31 0 -10 9 -21 21 -24 15 -5 19
-12 15 -28 -3 -12 -6 -64 -6 -114 l0 -93 -964 0 c-876 0 -966 1 -981 16 -11
12 -26 15 -50 11 -27 -4 -35 -2 -40 12 -4 12 -19 21 -45 25 -22 3 -40 11 -40
16 0 6 -11 10 -24 10 -13 0 -30 7 -37 16 -10 12 -24 15 -52 11 -33 -5 -40 -2
-45 15 -4 17 -11 19 -45 15 -32 -4 -40 -2 -44 13 -3 13 -18 19 -56 23 -28 4
-54 12 -58 18 -4 8 -22 10 -48 6 -34 -4 -44 -1 -55 15 -12 17 -23 19 -73 17
-43 -3 -64 1 -83 14 -22 15 -55 17 -306 17 -217 0 -283 -3 -287 -12 -2 -7 -15
-13 -28 -14 -13 0 -54 -1 -91 -2 -54 -2 -67 -5 -70 -19 -3 -14 -13 -17 -56
-14 -39 2 -57 -2 -65 -13 -7 -9 -32 -16 -62 -17 -27 -2 -56 -9 -63 -16 -7 -7
-24 -13 -38 -13 -15 0 -24 -6 -24 -15 0 -11 -11 -15 -40 -15 -27 0 -43 -5 -46
-15 -4 -9 -19 -15 -41 -15 -19 0 -41 -7 -49 -15 -9 -8 -24 -15 -34 -15 -10 0
-22 -9 -25 -20 -5 -15 -12 -19 -30 -14 -17 4 -25 1 -30 -14 -5 -17 -12 -20
-43 -15 -40 7 -53 18 -45 40 3 7 -2 16 -11 19 -9 3 -16 12 -16 19 0 7 -7 15
-15 19 -8 3 -15 11 -15 19 0 21 -49 62 -70 59 -10 -2 -25 6 -32 17 -12 17 -27
21 -84 23 -116 3 -142 0 -148 -20 -5 -15 -62 -49 -76 -45 -3 1 -16 -18 -29
-43 -26 -49 -57 -61 -49 -19 4 20 1 25 -14 25 -17 0 -19 5 -13 30 6 26 4 30
-14 30 -12 0 -21 5 -21 11 0 6 -20 30 -45 55 -25 24 -45 48 -45 54 0 5 -9 10
-20 10 -11 0 -23 7 -26 15 -4 9 -19 15 -40 15 -24 0 -34 5 -34 15 0 13 -21 15
-130 15 -78 0 -130 -4 -130 -10 0 -5 -11 -12 -25 -16 -14 -3 -39 -19 -56 -35
-17 -16 -39 -29 -48 -29 -20 0 -71 -50 -71 -69 0 -6 -13 -24 -29 -39 -23 -21
-30 -37 -33 -72 -3 -50 -30 -65 -36 -20 -5 33 -80 110 -108 110 -12 0 -25 7
-28 16 -5 13 -15 15 -46 11 -21 -3 -42 -2 -45 2 -4 3 -34 4 -68 2 -58 -3 -106
-24 -107 -46 0 -5 -14 -19 -30 -30 -17 -11 -33 -28 -36 -37 -7 -24 -25 -23
-31 2 -4 16 -14 20 -43 20 -24 0 -40 5 -44 15 -3 10 -19 15 -45 15 -27 0 -43
5 -49 16 -7 13 -20 16 -62 12 -46 -5 -53 -3 -58 14 -4 18 -11 20 -59 16 -45
-4 -56 -2 -67 14 -12 17 -26 19 -134 17 -66 -1 -126 2 -132 6 -14 8 -139 8
-375 -1 -130 -6 -162 -10 -172 -23 -9 -12 -26 -15 -81 -13 -56 3 -70 1 -75
-12 -5 -12 -20 -16 -61 -16 -39 0 -55 -4 -60 -15 -4 -11 -21 -15 -60 -15 -45
0 -55 -3 -59 -19 -4 -16 -11 -19 -44 -14 -34 4 -41 2 -45 -15 -5 -17 -11 -20
-45 -15 -34 4 -41 2 -45 -14 -4 -16 -13 -20 -44 -18 -22 2 -44 -3 -52 -11 -7
-8 -22 -14 -32 -14 -10 0 -22 -9 -25 -21 -4 -13 -12 -18 -22 -15 -8 3 -444 6
-969 6 l-954 0 0 24 c0 14 -4 28 -10 31 -5 3 -10 24 -10 45 0 21 5 42 10 45 6
3 10 31 10 61 0 41 4 54 15 54 9 0 15 9 15 23 0 30 63 102 80 92 8 -5 18 -2
24 7 15 21 122 30 137 11 6 -7 18 -13 25 -13 8 0 14 -7 14 -15 0 -13 -9 -15
-40 -12 -29 3 -40 0 -40 -10 0 -7 -10 -13 -23 -13 -14 0 -35 -13 -50 -30 -23
-25 -27 -39 -27 -91 0 -59 1 -62 43 -100 39 -35 46 -38 103 -39 53 0 62 3 67
19 4 16 11 19 46 14 26 -4 41 -2 41 5 0 6 9 14 20 17 11 3 20 10 20 15 0 13
46 60 59 60 6 0 11 14 11 30 0 20 5 30 15 30 11 0 15 11 15 39 0 25 -5 41 -15
45 -9 3 -15 18 -15 36 0 20 -5 30 -15 30 -14 0 -17 5 -19 40 -1 8 -21 25 -45
37 -25 12 -48 29 -53 37 -5 9 -20 16 -34 16 -13 0 -27 7 -31 15 -5 13 -25 16
-126 14 -88 -1 -125 -5 -135 -15 -7 -8 -21 -14 -30 -14 -17 -1 -62 -33 -62
-44 0 -7 -78 -86 -85 -86 -15 0 -45 -38 -45 -56 0 -12 -7 -25 -16 -28 -13 -5
-15 -16 -11 -52 4 -37 1 -47 -14 -57 -17 -10 -19 -25 -19 -114 l0 -103 -1525
0 c-1402 0 -1525 1 -1533 16 -7 13 -20 16 -61 12 -44 -4 -55 -2 -64 13 -9 15
-24 19 -74 19 -47 0 -64 4 -71 16 -7 13 -20 16 -61 12 -44 -4 -54 -2 -66 14
-11 17 -23 19 -75 16 -51 -2 -64 0 -75 15 -11 16 -24 18 -75 15 -48 -2 -64 1
-73 13 -8 11 -34 18 -86 21 -40 3 -76 10 -80 15 -3 6 -37 13 -76 16 -38 3 -71
10 -73 16 -2 7 -33 11 -78 11 -58 0 -76 3 -81 16 -4 12 -20 15 -76 13 -53 -2
-73 1 -81 13 -7 10 -35 17 -85 20 -40 3 -76 10 -80 15 -3 6 -37 13 -75 16 -38
2 -71 9 -75 15 -3 5 -37 12 -75 15 -38 2 -71 9 -75 15 -3 5 -37 12 -76 15 -38
3 -71 10 -73 16 -2 6 -30 11 -68 11 -47 0 -64 4 -64 14 0 9 -20 15 -66 19 -37
3 -70 10 -74 17 -5 9 -26 11 -65 8 -50 -4 -58 -2 -63 14 -4 15 -15 18 -73 18
-47 0 -71 4 -76 14 -5 8 -34 15 -72 19 -35 3 -67 10 -70 15 -3 5 -37 12 -74
14 -38 3 -74 11 -80 17 -6 6 -42 11 -79 11 -52 0 -70 4 -74 15 -5 11 -23 15
-75 15 -54 0 -71 3 -76 16 -5 13 -19 15 -75 12 -58 -2 -72 0 -83 15 -11 15
-26 18 -91 16 -62 -2 -79 1 -89 14 -10 13 -29 17 -89 17 -60 0 -78 3 -83 16
-4 12 -22 15 -91 13 -71 -2 -87 1 -98 15 -11 15 -27 17 -104 15 -79 -3 -94 -1
-105 15 -11 15 -28 17 -118 15 -83 -1 -110 2 -128 15 -19 13 -49 16 -145 16
-96 0 -124 3 -134 15 -9 11 -34 15 -95 15 -60 0 -84 4 -88 14 -3 7 -28 16 -58
19 -29 4 -56 12 -60 18 -4 8 -22 10 -49 6 -36 -5 -43 -3 -47 14 -3 10 -13 19
-23 19 -9 0 -41 25 -69 55 -29 30 -55 55 -58 55 -4 0 -24 19 -45 43 -55 60
-58 65 -58 79 0 14 -97 118 -110 118 -10 0 -40 45 -40 62 -1 15 -66 88 -78 88
-5 0 -18 19 -30 43 -23 43 -76 107 -89 107 -5 0 -42 36 -83 80 -41 44 -79 80
-84 80 -4 0 -25 13 -45 30 -25 19 -45 27 -58 24 -15 -4 -23 0 -28 15 -4 13
-15 21 -30 21 -12 0 -26 7 -29 16 -4 11 -13 14 -30 10 -19 -5 -26 -1 -31 15
-5 16 -12 19 -32 14 -19 -4 -26 -1 -30 15 -4 15 -14 20 -39 20 -23 0 -37 6
-41 16 -4 12 -14 14 -35 10 -25 -5 -31 -2 -35 15 -5 18 -11 21 -46 16 -34 -5
-40 -2 -45 15 -4 17 -11 19 -45 15 -33 -5 -40 -2 -44 14 -4 16 -14 19 -58 19
-38 0 -55 4 -59 15 -4 11 -21 15 -60 15 -39 0 -55 4 -60 15 -4 11 -22 15 -76
15 -54 0 -72 4 -76 15 -8 20 -186 22 -202 2z m224 -172 c5 -11 23 -15 70 -15
48 0 66 -4 70 -15 4 -11 21 -15 59 -15 40 0 54 -4 59 -16 5 -13 15 -15 47 -11
36 5 42 3 47 -15 4 -17 11 -19 45 -15 33 5 40 2 44 -14 4 -14 14 -19 43 -19
24 0 40 -5 44 -15 3 -8 14 -15 24 -15 11 0 25 -7 32 -15 7 -8 21 -15 31 -15
11 0 45 -13 76 -30 31 -16 62 -30 70 -30 7 0 16 -7 19 -15 4 -8 12 -15 19 -15
7 0 18 -7 25 -15 7 -8 23 -15 36 -15 13 0 24 -5 24 -11 0 -15 25 -34 70 -56
19 -9 58 -40 85 -69 67 -71 75 -81 75 -96 1 -16 66 -88 80 -88 5 0 19 -19 30
-42 24 -52 44 -78 58 -78 6 0 21 -20 32 -45 11 -25 25 -45 30 -45 6 0 10 -6
10 -14 0 -7 9 -16 21 -19 13 -3 18 -10 14 -17 -5 -8 -14 -5 -29 9 -12 12 -35
21 -49 21 -16 0 -30 7 -34 16 -4 11 -14 14 -34 10 -22 -4 -29 -1 -34 14 -4 11
-15 20 -25 20 -10 0 -25 7 -34 15 -8 8 -23 15 -33 15 -11 0 -28 7 -39 15 -10
8 -31 15 -46 15 -18 0 -28 5 -28 15 0 10 -10 15 -30 15 -20 0 -30 5 -30 15 0
10 -10 15 -30 15 -20 0 -30 5 -30 15 0 10 -10 15 -30 15 -20 0 -30 5 -30 15 0
10 -10 15 -30 15 -20 0 -30 5 -30 16 0 12 -10 14 -47 12 -46 -3 -48 -4 -51
-35 -2 -20 1 -33 8 -33 17 0 120 -109 110 -115 -5 -3 -18 4 -29 16 -11 12 -24
19 -29 15 -5 -3 -17 3 -27 14 -10 11 -29 20 -42 20 -13 0 -26 7 -29 15 -4 8
-12 15 -19 15 -7 0 -18 7 -25 15 -7 8 -20 15 -29 15 -9 0 -27 12 -40 26 -13
13 -43 34 -67 45 -24 11 -44 23 -44 27 0 10 -272 282 -282 282 -4 0 -16 19
-27 43 -11 23 -31 55 -45 70 -14 15 -26 37 -26 48 0 13 -7 19 -21 19 -17 0
-20 4 -15 25 5 18 1 27 -14 35 -27 14 -27 50 0 50 11 0 23 -7 26 -15z m29644
11 c0 -3 -4 -8 -10 -11 -5 -3 -10 -1 -10 4 0 6 5 11 10 11 6 0 10 -2 10 -4z
m-44 -61 c-9 -7 -16 -17 -16 -22 0 -6 -6 -16 -14 -22 -8 -7 -12 -21 -9 -31 4
-13 -1 -22 -13 -27 -22 -8 -48 -41 -49 -63 -1 -14 -265 -281 -286 -288 -5 -2
-9 -10 -9 -17 0 -14 -42 -45 -62 -45 -17 -1 -58 -35 -58 -49 0 -6 -17 -19 -37
-29 -21 -9 -44 -25 -52 -35 -8 -11 -21 -17 -32 -14 -11 3 -19 1 -19 -3 0 -5
-9 -12 -21 -15 -12 -4 -30 -16 -40 -26 -11 -11 -25 -17 -31 -13 -7 5 -4 13 10
25 12 9 22 22 22 28 0 5 7 14 16 19 10 6 14 20 12 43 -3 32 -5 34 -44 37 -27
2 -45 -2 -54 -13 -7 -8 -20 -15 -30 -15 -10 0 -23 -7 -30 -15 -7 -8 -20 -15
-30 -15 -10 0 -23 -7 -30 -15 -7 -8 -20 -15 -30 -15 -10 0 -20 -9 -23 -20 -4
-16 -11 -19 -30 -15 -20 5 -27 2 -32 -14 -5 -16 -12 -20 -31 -15 -17 4 -26 1
-30 -10 -4 -10 -18 -16 -35 -16 -19 0 -29 -5 -29 -15 0 -11 -11 -15 -39 -15
-22 0 -44 -6 -51 -15 -7 -8 -21 -15 -31 -15 -10 0 -20 -9 -24 -19 -4 -14 -13
-19 -33 -17 -30 4 -43 33 -18 42 9 3 16 15 16 25 0 11 7 19 16 19 18 0 53 38
54 58 0 18 30 62 42 62 13 0 47 42 48 58 0 20 31 62 45 62 7 0 15 4 17 9 2 5
21 29 43 53 22 24 40 50 40 58 0 8 9 17 21 20 26 6 88 60 97 84 5 12 14 17 27
13 10 -3 24 1 31 9 6 8 19 14 29 14 10 0 23 7 30 15 7 8 20 15 30 15 10 0 23
7 30 15 7 8 21 15 32 15 10 0 21 7 24 15 4 10 20 15 44 15 24 0 40 5 44 15 4
10 20 15 51 15 33 0 45 4 45 15 0 11 13 15 54 15 45 0 56 3 61 19 5 16 12 19
42 14 27 -5 38 -2 45 10 6 11 22 17 47 17 25 0 41 5 45 15 4 10 20 15 51 15
33 0 45 4 45 14 0 21 103 27 109 7 2 -8 -4 -20 -13 -26z m-776 -715 c0 -5 -5
-10 -11 -10 -5 0 -7 5 -4 10 3 6 8 10 11 10 2 0 4 -4 4 -10z m-582 -112 c-6
-18 -28 -21 -28 -4 0 9 7 16 16 16 9 0 14 -5 12 -12z m-31675 -56 c11 -9 42
-13 98 -11 66 2 84 -1 94 -14 9 -13 28 -17 74 -17 46 0 63 -4 67 -15 4 -11 21
-15 59 -15 35 0 55 -4 58 -14 3 -8 27 -15 58 -18 29 -3 55 -11 57 -17 2 -6 14
-11 27 -11 13 0 30 -7 39 -15 8 -9 18 -16 21 -15 35 2 56 -3 69 -15 8 -9 18
-16 21 -15 35 2 56 -3 69 -15 8 -8 30 -15 49 -15 22 0 37 -6 41 -15 3 -8 14
-15 24 -15 11 0 25 -7 32 -15 7 -8 29 -15 50 -15 24 0 40 -5 44 -15 3 -8 14
-15 24 -15 11 0 25 -7 32 -15 7 -8 21 -15 31 -15 9 0 24 -7 33 -15 8 -8 20
-15 27 -15 23 0 119 -35 119 -43 0 -14 -184 4 -196 19 -8 10 -36 14 -102 14
-68 0 -93 4 -99 14 -6 10 -34 15 -100 17 -51 2 -95 0 -99 -4 -4 -4 -16 -7 -26
-7 -16 0 -19 -6 -16 -32 3 -30 6 -33 35 -30 25 2 33 -1 38 -18 5 -17 12 -20
32 -15 19 4 26 1 29 -12 6 -21 65 -45 107 -44 16 1 27 -4 27 -12 0 -19 -321
-13 -335 7 -6 8 -39 15 -85 18 -41 3 -76 11 -78 17 -2 6 -28 11 -63 11 -46 0
-59 3 -59 15 0 11 -12 15 -45 15 -31 0 -47 5 -51 15 -4 10 -20 15 -45 15 -26
0 -42 5 -45 15 -4 10 -20 15 -44 15 -24 0 -40 5 -44 15 -3 8 -14 15 -24 15
-11 0 -25 7 -32 15 -7 9 -29 15 -51 15 -28 0 -39 4 -39 15 0 10 -10 15 -29 15
-17 0 -31 6 -35 16 -4 11 -13 14 -30 10 -19 -5 -26 -1 -31 14 -4 13 -15 20
-31 20 -14 0 -24 6 -24 14 0 8 -9 18 -20 21 -11 3 -20 10 -20 15 0 5 -7 7 -16
3 -10 -4 -26 7 -45 31 -17 20 -39 36 -50 36 -10 0 -47 28 -81 62 -48 48 -58
63 -45 67 9 3 133 4 275 1 193 -4 263 -8 275 -18z m37007 11 c0 -7 -4 -13 -8
-13 -5 0 -40 -31 -78 -70 -38 -38 -76 -70 -84 -70 -19 -1 -60 -34 -60 -49 0
-6 -11 -11 -24 -11 -16 0 -27 -7 -31 -20 -5 -15 -12 -19 -30 -14 -18 4 -25 1
-30 -15 -5 -16 -12 -20 -31 -15 -17 4 -26 1 -30 -10 -4 -9 -18 -16 -34 -16
-16 0 -30 -7 -34 -15 -3 -9 -18 -15 -40 -15 -25 0 -35 -5 -39 -20 -4 -16 -11
-19 -35 -14 -21 4 -31 2 -35 -10 -4 -11 -19 -16 -42 -16 -22 0 -38 -6 -41 -15
-4 -10 -20 -15 -44 -15 -29 0 -40 -5 -45 -19 -5 -16 -13 -18 -44 -14 -32 4
-39 2 -43 -15 -5 -18 -11 -20 -48 -15 -28 4 -45 2 -50 -7 -5 -7 -38 -15 -81
-18 -44 -3 -78 -10 -84 -18 -7 -10 -57 -14 -192 -17 -174 -4 -231 3 -142 18
22 4 43 13 46 21 3 9 14 11 34 7 22 -4 29 -2 29 11 0 11 9 16 30 16 17 0 30 4
30 9 0 4 15 12 33 17 28 8 32 14 35 47 4 43 8 41 -138 37 -64 -2 -87 -6 -96
-18 -10 -13 -27 -16 -89 -13 -56 2 -81 -1 -93 -12 -22 -18 -213 -34 -194 -15
14 14 80 38 105 38 10 0 17 8 17 20 0 17 5 19 25 14 18 -4 27 -1 31 10 4 10
18 16 41 16 19 0 41 7 49 15 9 8 24 15 34 15 10 0 21 9 25 20 5 15 12 18 36
13 18 -3 29 -1 29 6 0 6 18 14 40 17 25 4 41 13 45 24 5 14 13 17 44 13 32 -4
39 -2 43 15 5 17 11 20 45 15 34 -4 41 -2 45 15 5 17 11 20 45 15 34 -4 41 -2
45 15 5 18 11 20 48 15 27 -4 45 -2 49 6 4 6 32 14 62 18 30 3 57 10 60 15 3
5 35 12 70 15 38 4 67 11 72 19 6 10 33 14 100 14 77 0 94 3 103 18 10 15 35
17 278 17 206 0 266 -3 266 -12z m-39105 -718 c88 -3 165 -11 172 -16 7 -6 65
-9 142 -8 100 2 134 -1 147 -12 11 -9 53 -16 115 -20 55 -3 105 -11 113 -18
10 -8 39 -12 81 -9 52 2 69 -1 78 -13 8 -11 34 -18 86 -21 43 -3 76 -11 81
-18 5 -9 25 -11 65 -8 49 4 58 2 62 -12 4 -14 20 -19 71 -23 36 -3 68 -10 70
-16 2 -6 28 -11 62 -11 42 0 59 -4 64 -15 4 -11 21 -15 60 -15 39 0 55 -4 60
-15 4 -11 21 -15 61 -15 42 0 55 -3 55 -15 0 -12 13 -15 59 -15 36 0 61 -5 63
-12 2 -6 21 -11 41 -10 23 1 37 -3 37 -11 0 -9 -369 -11 -1702 -10 -937 2
-1705 3 -1708 4 -6 1 82 28 120 36 14 3 29 12 33 19 4 8 23 14 42 14 24 0 35
5 40 19 5 16 12 19 40 14 24 -4 39 -1 50 11 9 9 27 16 41 16 15 0 24 6 24 15
0 11 11 15 39 15 25 0 41 5 45 15 4 10 20 15 50 15 24 0 46 5 48 10 2 6 27 13
56 17 31 3 56 12 59 19 3 10 24 14 63 14 35 0 60 5 62 11 2 7 37 14 83 17 44
2 86 10 94 16 8 6 65 13 133 15 67 2 118 7 118 13 0 5 26 8 60 7 34 -1 65 2
71 8 7 7 17 10 23 8 6 -2 83 -6 171 -10z m40881 -14 c5 -5 76 -11 158 -12 114
-2 149 -6 153 -16 4 -11 27 -14 92 -12 73 2 86 -1 89 -15 3 -13 16 -16 73 -16
53 0 71 -4 75 -15 5 -11 21 -15 60 -15 39 0 55 -4 62 -17 7 -12 18 -15 47 -10
32 5 38 3 43 -15 4 -17 11 -19 45 -15 34 5 40 2 45 -15 4 -17 11 -19 43 -15
31 4 39 2 44 -14 5 -14 16 -19 45 -19 24 0 40 -5 44 -15 3 -8 15 -15 26 -15
11 0 23 -7 26 -15 4 -10 20 -15 49 -15 24 0 47 -4 50 -10 3 -5 15 -10 26 -10
10 0 19 -6 19 -12 0 -10 -173 -12 -837 -10 -461 1 -841 6 -845 10 -4 4 -121 4
-260 1 -336 -9 -1457 -13 -1464 -6 -3 3 16 9 43 13 26 3 54 12 62 18 8 6 37
10 66 8 45 -3 53 -1 57 16 5 16 12 18 60 14 48 -4 56 -2 60 15 5 17 12 19 60
15 49 -4 56 -2 60 16 5 17 12 19 58 14 42 -4 55 -1 62 12 7 12 24 16 68 16 33
0 60 5 62 11 2 6 33 13 68 16 39 4 68 11 73 19 6 10 30 14 82 14 46 0 75 4 77
11 2 7 37 14 83 17 44 2 86 9 94 15 7 6 59 13 115 15 72 3 103 8 109 18 6 11
44 14 182 14 110 0 175 4 175 10 0 13 302 14 316 1z m-30806 -153 c0 -10 2
-10 9 0 6 10 22 11 60 6 66 -9 73 -20 16 -28 -24 -4 -47 -11 -50 -17 -4 -5
-18 -9 -33 -9 -15 0 -36 -7 -46 -15 -11 -8 -30 -15 -42 -15 -12 0 -27 -7 -34
-15 -7 -8 -19 -15 -27 -15 -8 0 -32 -13 -52 -29 l-37 -29 -752 -4 c-414 -1
-752 0 -752 5 0 7 5 8 78 13 24 2 50 8 58 15 9 8 43 11 90 10 63 -2 78 1 89
16 11 15 25 17 83 15 56 -3 70 -1 75 12 5 13 24 16 102 16 57 0 95 4 95 10 0
6 8 10 18 10 10 0 22 3 25 7 4 4 57 5 118 4 89 -2 115 1 135 14 22 14 56 16
240 15 141 0 214 3 214 10 0 6 56 10 160 10 121 0 160 -3 160 -12z m20720 2
c0 -6 90 -10 249 -10 212 0 250 -2 261 -15 11 -13 35 -16 130 -14 95 1 122 -2
143 -15 20 -14 46 -17 123 -15 80 1 99 -1 109 -15 10 -12 29 -16 89 -16 59 0
78 -3 82 -15 5 -12 24 -15 88 -15 45 0 86 -4 92 -10 5 -5 34 -11 64 -14 30 -2
61 -4 68 -5 6 -1 12 -4 12 -8 0 -14 -1453 -3 -1469 10 -8 7 -24 10 -37 9 -15
-2 -24 3 -29 17 -4 13 -15 21 -30 21 -12 0 -26 7 -29 16 -4 12 -13 14 -32 10
-20 -5 -27 -3 -31 13 -4 15 -23 23 -89 36 -105 23 -111 39 -9 32 43 -4 77 -2
80 3 8 13 165 13 165 0z m-8069 -56 c10 -9 39 -14 87 -14 49 0 73 -4 79 -13 4
-8 31 -17 58 -21 28 -3 52 -11 53 -16 2 -6 23 -10 47 -10 24 0 46 -4 49 -9 4
-5 24 -12 47 -16 22 -4 38 -9 36 -12 -4 -4 -1389 -6 -1452 -2 -29 2 124 38
163 39 22 0 32 5 32 15 0 12 14 15 69 15 58 0 70 3 73 17 3 15 14 17 89 14 70
-2 89 1 107 16 21 16 42 18 235 15 167 -3 215 -6 228 -18z m-3963 0 c16 -11
45 -15 94 -13 53 2 74 -1 82 -13 6 -9 35 -17 70 -21 33 -3 62 -11 67 -18 4 -8
21 -10 48 -6 30 4 43 1 49 -9 5 -8 26 -16 48 -17 21 -1 39 -6 39 -10 0 -9
-1464 -12 -1472 -3 -2 2 14 7 36 11 23 4 43 11 47 16 3 5 29 9 58 9 35 0 58 5
66 15 7 9 29 15 50 15 21 0 40 5 42 11 2 7 37 14 83 17 50 3 83 9 88 18 12 20
473 18 505 -2z m-7943 -34 c3 -6 50 -10 105 -10 68 0 103 -4 112 -13 8 -8 41
-15 81 -16 37 -1 83 -9 101 -16 18 -8 36 -12 39 -9 7 7 77 -6 77 -15 0 -3
-259 -6 -575 -6 -316 0 -575 3 -575 6 0 4 20 10 45 13 24 4 47 11 50 17 4 5
30 9 60 9 38 0 54 4 59 15 4 12 27 15 116 15 67 0 110 4 110 10 0 6 38 10 94
10 53 0 98 -4 101 -10z m19344 -24 c10 -10 36 -16 62 -16 24 0 60 -5 79 -11
19 -6 50 -10 68 -10 19 0 32 -5 32 -12 0 -9 -123 -12 -545 -12 -300 0 -545 3
-545 7 0 7 40 15 90 17 19 1 38 7 42 14 5 8 32 10 83 8 66 -2 79 0 90 16 12
17 30 18 270 16 217 -2 260 -4 274 -17z m-13229 -231 c0 -11 -96 -35 -137 -35
-12 0 -23 -8 -26 -19 -4 -17 -11 -19 -47 -14 -27 4 -45 2 -49 -6 -5 -7 -34
-15 -67 -18 -39 -4 -63 -12 -71 -23 -9 -13 -23 -16 -69 -12 -39 3 -59 1 -64
-8 -5 -9 -43 -15 -109 -19 -69 -4 -105 -11 -115 -21 -13 -13 -41 -14 -174 -10
-114 4 -164 9 -176 19 -10 9 -29 12 -51 8 -28 -5 -35 -2 -40 15 -5 15 -13 18
-30 14 -18 -5 -25 -1 -30 14 -3 11 -15 20 -25 20 -19 0 -100 71 -100 88 0 6 5
12 10 14 6 2 316 3 690 3 468 0 680 -3 680 -10z m8463 -3 c9 -14 -30 -62 -51
-62 -7 0 -31 -13 -54 -30 -22 -16 -50 -30 -60 -30 -11 0 -26 -7 -34 -15 -9 -8
-30 -15 -49 -15 -20 0 -35 -6 -39 -15 -9 -23 -464 -22 -473 1 -5 13 -21 15
-90 13 -71 -3 -87 0 -98 14 -8 11 -26 17 -53 17 -28 0 -42 5 -46 16 -5 13 -15
15 -47 11 -35 -5 -42 -2 -46 14 -4 16 -14 19 -59 19 -40 0 -54 4 -54 14 0 9
-7 12 -21 9 -12 -3 -24 -1 -28 4 -3 5 -15 15 -26 21 -19 11 -18 11 7 12 15 0
29 3 31 8 3 4 292 7 644 7 509 0 640 -3 646 -13z m-20096 -688 c4 -13 -39 -21
-144 -30 -45 -4 -63 -10 -63 -20 0 -11 -16 -14 -70 -14 -56 0 -70 -3 -70 -15
0 -12 -15 -15 -74 -15 -56 0 -75 -4 -80 -15 -4 -12 -23 -15 -82 -15 -61 0 -79
-3 -90 -17 -10 -15 -25 -17 -82 -15 -64 3 -71 2 -77 -17 -4 -13 -13 -20 -23
-19 -13 2 -18 -6 -20 -29 -3 -27 0 -33 16 -33 11 0 25 -7 32 -15 7 -8 15 -13
19 -11 3 2 93 7 200 11 141 5 203 11 230 23 53 23 81 26 81 7 0 -10 -10 -15
-30 -15 -16 0 -33 -6 -37 -13 -9 -13 -69 -37 -95 -37 -9 0 -18 -7 -22 -15 -3
-8 -17 -15 -31 -15 -16 0 -25 -6 -25 -15 0 -11 -12 -15 -45 -15 -33 0 -45 -4
-45 -15 0 -12 -15 -15 -79 -15 -54 0 -81 -4 -83 -12 -6 -17 -232 -16 -252 1
-9 8 -46 12 -103 10 -75 -2 -88 0 -91 15 -3 13 -16 16 -72 16 -54 0 -71 4 -78
16 -7 13 -20 16 -62 12 -38 -4 -53 -2 -57 8 -3 8 -14 14 -24 14 -30 0 -22 24
14 38 17 8 44 20 59 28 14 8 35 14 46 14 11 0 22 8 25 19 3 14 13 18 43 16 22
-2 44 3 52 11 7 8 29 14 47 14 24 0 35 5 40 19 5 16 12 18 46 14 27 -4 44 -2
49 6 4 7 36 15 71 18 38 4 67 11 72 19 5 9 28 14 67 14 34 0 60 5 62 11 2 6
37 14 78 17 51 3 79 10 86 21 10 12 30 15 104 12 69 -2 95 1 101 11 6 10 53
14 186 18 248 7 276 7 280 -6z m30458 0 c21 -3 44 -9 50 -14 5 -4 56 -10 113
-11 63 -2 106 -8 110 -15 4 -6 42 -14 86 -16 43 -3 81 -10 85 -15 3 -6 37 -13
76 -16 38 -3 71 -10 73 -16 2 -6 28 -11 62 -11 42 0 59 -4 64 -15 3 -9 18 -15
40 -15 19 0 42 -7 51 -16 11 -12 26 -15 52 -11 29 5 36 3 40 -13 4 -16 14 -20
44 -20 28 0 39 -4 39 -15 0 -10 10 -15 29 -15 17 0 31 -6 35 -16 4 -10 14 -14
26 -11 11 3 23 0 28 -7 4 -7 16 -18 27 -24 18 -10 18 -11 -10 -18 -17 -4 -33
-12 -37 -17 -3 -6 -34 -9 -68 -8 -50 2 -64 -1 -75 -16 -11 -15 -25 -17 -90
-14 -62 2 -79 0 -89 -14 -10 -14 -41 -16 -271 -16 -225 0 -260 2 -263 16 -3
11 -17 15 -58 15 -39 0 -56 4 -60 15 -4 8 -16 15 -28 15 -12 0 -31 7 -42 15
-10 8 -31 15 -46 15 -16 0 -28 4 -28 8 0 5 -18 17 -40 27 -22 10 -40 24 -40
31 0 20 80 11 92 -10 7 -13 28 -16 111 -17 56 -1 149 -4 205 -8 57 -3 106 -3
109 2 2 4 13 7 24 7 10 0 19 3 20 8 1 15 7 37 14 55 6 13 2 17 -18 17 -14 0
-27 6 -30 14 -3 8 -29 15 -73 19 -38 3 -70 10 -72 16 -2 6 -29 11 -62 11 -44
0 -61 4 -68 16 -7 13 -20 16 -61 12 -44 -4 -54 -2 -66 15 -11 16 -22 19 -61
14 -40 -4 -47 -2 -51 14 -4 15 -15 19 -57 19 -28 0 -59 7 -69 14 -9 7 -28 11
-42 8 -18 -3 -25 0 -25 11 0 14 17 15 128 11 70 -2 145 -7 167 -10z m-28278
-141 c-3 -10 -5 -4 -5 12 0 17 2 24 5 18 2 -7 2 -21 0 -30z m25693 -27 c0 -8
-7 -19 -15 -26 -13 -10 -15 -9 -15 12 0 14 3 28 6 31 9 9 24 -2 24 -17z
m-25654 -43 c3 -10 12 -30 20 -45 8 -14 14 -33 14 -42 0 -9 5 -16 10 -16 6 0
10 -8 10 -19 0 -10 7 -24 15 -31 8 -7 15 -20 15 -29 0 -10 8 -26 18 -37 26
-30 42 -62 42 -84 0 -11 7 -20 15 -20 9 0 15 -9 15 -25 0 -16 6 -25 15 -25 10
0 15 -10 15 -30 0 -18 6 -33 15 -36 10 -4 15 -20 15 -45 0 -26 5 -42 15 -45 9
-4 15 -19 15 -39 0 -25 5 -35 21 -40 15 -5 19 -12 15 -28 -3 -12 -6 -82 -6
-156 l0 -133 -32 24 c-18 13 -50 32 -70 42 -21 9 -38 22 -38 27 0 15 -42 48
-62 49 -17 0 -52 32 -151 138 -32 34 -62 62 -67 62 -11 0 -40 46 -40 63 0 8
-7 20 -15 27 -8 7 -15 19 -15 27 0 8 -7 21 -15 29 -8 9 -15 26 -15 40 0 15 -6
24 -15 24 -12 0 -15 18 -15 105 0 91 2 105 16 105 14 0 16 7 11 45 -4 27 -3
45 3 45 6 0 16 15 23 33 l14 32 7 -38 c4 -20 5 -41 2 -46 -3 -5 2 -8 12 -7 12
1 17 -6 17 -26 0 -15 12 -41 28 -59 15 -17 27 -36 27 -43 0 -6 29 -40 64 -75
51 -51 68 -62 78 -53 8 6 24 9 36 5 20 -5 22 -2 22 35 0 22 -6 47 -13 54 -8 7
-17 26 -21 41 -3 15 -11 27 -16 27 -6 0 -10 7 -10 15 0 9 -7 32 -16 53 -10 20
-18 43 -20 50 -1 7 -9 24 -18 37 -18 28 -21 55 -6 55 6 0 13 -8 16 -17z
m25619 -49 c0 -15 -5 -28 -12 -31 -7 -3 -13 -14 -13 -24 0 -10 -4 -19 -10 -19
-5 0 -12 -11 -16 -25 -3 -14 -15 -42 -25 -62 -10 -21 -19 -43 -19 -49 0 -7 -4
-14 -10 -16 -5 -1 -12 -17 -16 -35 -6 -28 -3 -34 19 -44 28 -13 77 -5 77 12 0
12 73 89 85 89 11 0 44 43 45 58 0 7 7 15 15 18 8 4 15 12 15 19 0 7 7 15 15
19 10 4 15 20 15 51 0 44 5 50 32 40 11 -4 13 -21 10 -66 -3 -37 0 -65 7 -72
14 -14 15 -173 1 -182 -5 -3 -10 -23 -10 -44 0 -21 -6 -44 -14 -50 -7 -6 -11
-22 -8 -36 3 -21 0 -25 -18 -25 -17 0 -21 -4 -17 -20 5 -18 -29 -70 -45 -70
-8 0 -68 -60 -68 -68 0 -13 -74 -72 -91 -72 -10 0 -30 -16 -46 -35 -16 -19
-45 -41 -64 -49 -20 -8 -47 -26 -60 -40 -23 -25 -52 -32 -81 -21 -19 8 -12
245 8 261 8 6 14 25 14 41 0 17 7 37 16 44 12 10 14 23 10 51 -6 34 -4 38 15
38 18 0 20 4 14 30 -6 26 -4 30 15 30 19 0 21 4 15 30 -6 26 -4 30 14 30 17 0
21 6 21 30 0 17 4 30 9 30 5 0 13 10 17 23 4 12 9 24 13 27 3 3 15 23 26 45
11 22 26 46 32 53 7 7 13 22 13 33 0 10 4 19 9 19 5 0 12 10 16 23 4 12 8 25
10 30 1 4 3 10 4 14 3 15 15 -9 16 -33z"/>
</g>
</svg>
