<svg xmlns="http://www.w3.org/2000/svg" viewBox="0 0 240 240" role="img" aria-labelledby="title desc">
  <title id="title">QR placeholder</title>
  <desc id="desc">Placeholder QR-style image for a future gift QR code.</desc>
  <rect width="240" height="240" fill="#FFFFFF"/>
  <rect x="20" y="20" width="58" height="58" fill="#3D332A"/>
  <rect x="32" y="32" width="34" height="34" fill="#FFFFFF"/>
  <rect x="42" y="42" width="14" height="14" fill="#3D332A"/>
  <rect x="162" y="20" width="58" height="58" fill="#3D332A"/>
  <rect x="174" y="32" width="34" height="34" fill="#FFFFFF"/>
  <rect x="184" y="42" width="14" height="14" fill="#3D332A"/>
  <rect x="20" y="162" width="58" height="58" fill="#3D332A"/>
  <rect x="32" y="174" width="34" height="34" fill="#FFFFFF"/>
  <rect x="42" y="184" width="14" height="14" fill="#3D332A"/>
  <path d="M99 24h18v18H99zm34 0h13v13h-13zm-28 41h40v14h-40zm-12 35h18v18H93zm36 0h18v18h-18zm31 0h16v16h-16zm36 0h18v18h-18zM98 135h16v16H98zm27-11h37v15h-37zm54 5h15v15h-15zm22 23h18v18h-18zm-104 22h18v18H97zm34-14h18v18h-18zm28 26h17v17h-17zm36-1h25v25h-25zm-71 25h18v18h-18z" fill="#3D332A"/>
</svg>
